<svg width="48" height="48" viewBox="0 0 48 48" fill="none" xmlns="http://www.w3.org/2000/svg">
<path d="M17.7904 0.824014C30.5881 -2.60726 43.7458 4.99086 47.177 17.7917C50.6051 30.5893 43.0109 43.747 30.2094 47.1751C17.4117 50.6064 4.25402 43.0083 0.822741 30.2106C-2.60468 17.4098 4.98892 4.25529 17.7904 0.824014Z" fill="#2B303B"/>
<path d="M0.164185 21.2089C0.436966 18.8797 1.05185 16.6204 1.96519 14.4985L7.23084 15.9105C6.22636 17.992 5.60441 20.266 5.42919 22.6203L0.164185 21.2089Z" fill="#9CFFC5"/>
<path d="M9.66878 43.2452C7.81707 41.8659 6.15407 40.2176 4.75293 38.3364L8.60653 34.4796C9.9345 36.4334 11.6123 38.0887 13.5224 39.3916L9.66878 43.2452Z" fill="#9CFFC5"/>
<path d="M47.8355 26.7903C47.5628 29.1195 46.9479 31.3788 46.0345 33.5007L40.7695 32.0887C41.7734 30.0072 42.396 27.7332 42.5705 25.3789L47.8355 26.7903Z" fill="#9CFFC5"/>
<path d="M38.3311 4.75787C40.1835 6.13334 41.8465 7.78543 43.247 9.66666L39.394 13.5196C38.0654 11.5697 36.3883 9.91056 34.4775 8.61148L38.3311 4.75787Z" fill="#9CFFC5"/>
<path d="M17.7904 0.824046C18.9297 0.51853 20.0721 0.304159 21.2108 0.169373L22.6228 5.43117C21.4803 5.51846 20.327 5.70717 19.1806 6.01654C18.0343 6.32269 16.9425 6.73346 15.9092 7.22832L14.501 1.96652C15.5523 1.51531 16.6518 1.12956 17.7904 0.824046Z" fill="#9CFFC5"/>
<path d="M33.4987 46.0327L32.0905 40.7709C31.0572 41.2689 29.966 41.6765 28.8197 41.9827C27.6734 42.2921 26.52 42.4846 25.3807 42.568L26.7889 47.8337C27.9282 47.6989 29.0707 47.4807 30.2093 47.1752C31.3486 46.869 32.4474 46.4871 33.4987 46.0327Z" fill="#9CFFC5"/>
<circle cx="24" cy="23.9996" r="18.5" fill="#21262F"/>
<path fill-rule="evenodd" clip-rule="evenodd" d="M19.8539 8.52739C28.4013 6.23859 37.1816 11.3079 39.4737 19.8552C41.7625 28.3988 36.69 37.183 28.1465 39.4718C19.6023 41.7606 10.8187 36.6913 8.52992 28.1439C6.23727 19.6004 11.3097 10.8162 19.8539 8.52739ZM9.8688 27.7877C11.9612 35.5893 19.981 40.2214 27.7864 38.129C35.5912 36.0405 40.2201 28.0169 38.1309 20.2153C36.0392 12.4099 28.0187 7.77773 20.214 9.87013C12.4086 11.9625 7.78026 19.9823 9.8688 27.7877Z" fill="#404757"/>
<path d="M11.3534 14.1711C12.1647 13.123 13.1075 12.1737 14.1659 11.3515L15.1595 12.3412C14.0896 13.1557 13.1435 14.1056 12.3431 15.1608L11.3534 14.1711Z" fill="#9CFFC5"/>
<path d="M8.12939 21.809C8.31168 20.4811 8.66405 19.189 9.16276 17.9631L10.5164 18.3271C10.0036 19.5459 9.65056 20.8411 9.48304 22.173L8.12939 21.809Z" fill="#9CFFC5"/>
<path d="M9.16281 30.04C8.91571 29.4289 8.70454 28.7993 8.52996 28.144C8.35538 27.4931 8.22059 26.8417 8.1333 26.1902L9.48694 25.8263C9.57038 26.481 9.69426 27.1324 9.86884 27.7878C10.0434 28.4392 10.2616 29.0682 10.5165 29.676L9.16281 30.04Z" fill="#9CFFC5"/>
<path d="M14.1697 36.6477C13.1255 35.8364 12.1755 34.8942 11.3495 33.8313L12.3431 32.8416C13.1543 33.9116 14.1043 34.8576 15.1633 35.6548L14.1697 36.6477Z" fill="#9CFFC5"/>
<path d="M21.8115 39.8717C20.4796 39.6862 19.1876 39.337 17.9611 38.8351L18.325 37.4814C19.5445 37.9981 20.8397 38.3473 22.1715 38.5148L21.8115 39.8717Z" fill="#9CFFC5"/>
<path d="M30.0386 38.8382C29.428 39.086 28.7972 39.2972 28.1464 39.4718C27.4949 39.6463 26.8435 39.7773 26.1888 39.8684L25.8287 38.5148C26.4796 38.4307 27.1349 38.3036 27.7863 38.129C28.4372 37.9544 29.0668 37.7362 29.6746 37.4846L30.0386 38.8382Z" fill="#9CFFC5"/>
<path d="M36.6463 33.8313C35.835 34.8756 34.8928 35.8255 33.8338 36.6516L32.8402 35.658C33.9102 34.8467 34.8562 33.8936 35.6566 32.8384L36.6463 33.8313Z" fill="#9CFFC5"/>
<path d="M39.8703 26.1902C39.6886 27.5182 39.3356 28.8102 38.8369 30.0361L37.4833 29.676C37.9967 28.4533 38.3498 27.162 38.5166 25.8263L39.8703 26.1902Z" fill="#9CFFC5"/>
<path d="M38.8369 17.9631C39.0847 18.5703 39.299 19.2038 39.4736 19.8553C39.6478 20.5065 39.78 21.1578 39.8703 21.809L38.5134 22.173C38.4332 21.5215 38.3061 20.8668 38.1309 20.2153C37.9563 19.56 37.7381 18.931 37.4833 18.3271L38.8369 17.9631Z" fill="#9CFFC5"/>
<path d="M33.8299 11.3547C34.878 12.166 35.8241 13.1089 36.6502 14.1679L35.6566 15.1577C34.8453 14.0877 33.8954 13.1416 32.8402 12.3445L33.8299 11.3547Z" fill="#9CFFC5"/>
<path d="M26.192 8.12756C27.5206 8.31306 28.812 8.66223 30.0386 9.16414L29.6746 10.5178C28.4558 10.0011 27.1599 9.65194 25.8287 9.48442L26.192 8.12756Z" fill="#9CFFC5"/>
<path d="M19.8538 8.52745C20.5047 8.35287 21.16 8.22194 21.8115 8.1308L22.1715 9.48444C21.5201 9.56852 20.8654 9.69561 20.2139 9.87019C19.5625 10.0448 18.9328 10.263 18.325 10.5178L17.9611 9.16095C18.5721 8.9132 19.203 8.70203 19.8538 8.52745Z" fill="#9CFFC5"/>
<path d="M14.336 27.184L17.432 23.896C17.688 23.624 17.896 23.38 18.056 23.164C18.216 22.948 18.332 22.744 18.404 22.552C18.476 22.36 18.512 22.164 18.512 21.964C18.512 21.588 18.388 21.296 18.14 21.088C17.9 20.872 17.592 20.764 17.216 20.764C16.816 20.764 16.464 20.864 16.16 21.064C15.856 21.264 15.584 21.576 15.344 22L14.384 21.208C14.712 20.64 15.116 20.212 15.596 19.924C16.076 19.628 16.632 19.48 17.264 19.48C17.784 19.48 18.24 19.584 18.632 19.792C19.024 20 19.328 20.292 19.544 20.668C19.76 21.036 19.868 21.464 19.868 21.952C19.868 22.304 19.824 22.62 19.736 22.9C19.656 23.172 19.516 23.448 19.316 23.728C19.116 24 18.84 24.32 18.488 24.688L16.112 27.148L14.336 27.184ZM14.336 28V27.184L15.524 26.764H20.036V28H14.336ZM23.4562 28.12C22.8722 28.12 22.3522 28.02 21.8962 27.82C21.4402 27.612 21.0562 27.312 20.7442 26.92L21.6802 25.984C21.8482 26.24 22.0842 26.444 22.3882 26.596C22.7002 26.748 23.0482 26.824 23.4322 26.824C23.7842 26.824 24.0922 26.76 24.3562 26.632C24.6202 26.504 24.8282 26.32 24.9802 26.08C25.1322 25.84 25.2082 25.556 25.2082 25.228C25.2082 24.884 25.1322 24.6 24.9802 24.376C24.8362 24.144 24.6402 23.972 24.3922 23.86C24.1522 23.74 23.8922 23.68 23.6122 23.68C23.2922 23.68 23.0042 23.716 22.7482 23.788C22.5002 23.86 22.2562 23.988 22.0162 24.172L22.0522 23.308C22.1802 23.14 22.3282 23.004 22.4962 22.9C22.6642 22.788 22.8602 22.704 23.0842 22.648C23.3082 22.592 23.5722 22.564 23.8762 22.564C24.4682 22.564 24.9642 22.688 25.3642 22.936C25.7722 23.184 26.0802 23.516 26.2882 23.932C26.4962 24.34 26.6002 24.796 26.6002 25.3C26.6002 25.844 26.4642 26.328 26.1922 26.752C25.9282 27.176 25.5602 27.512 25.0882 27.76C24.6162 28 24.0722 28.12 23.4562 28.12ZM22.0162 24.172L21.2602 23.416L21.6322 19.6H22.8922L22.4602 23.572L22.0162 24.172ZM21.8722 20.836L21.6322 19.6H26.1322V20.836H21.8722ZM30.9793 28.12C30.3473 28.12 29.7673 27.944 29.2393 27.592C28.7193 27.232 28.3033 26.728 27.9913 26.08C27.6793 25.432 27.5233 24.668 27.5233 23.788C27.5233 22.908 27.6753 22.148 27.9793 21.508C28.2913 20.86 28.7073 20.36 29.2273 20.008C29.7473 19.656 30.3233 19.48 30.9553 19.48C31.5953 19.48 32.1753 19.656 32.6953 20.008C33.2153 20.36 33.6273 20.86 33.9313 21.508C34.2433 22.148 34.3993 22.912 34.3993 23.8C34.3993 24.68 34.2433 25.444 33.9313 26.092C33.6273 26.74 33.2153 27.24 32.6953 27.592C32.1833 27.944 31.6113 28.12 30.9793 28.12ZM30.9553 26.824C31.3713 26.824 31.7313 26.712 32.0353 26.488C32.3393 26.264 32.5753 25.928 32.7433 25.48C32.9193 25.032 33.0073 24.468 33.0073 23.788C33.0073 23.116 32.9193 22.556 32.7433 22.108C32.5753 21.66 32.3353 21.328 32.0233 21.112C31.7193 20.888 31.3633 20.776 30.9553 20.776C30.5473 20.776 30.1873 20.888 29.8753 21.112C29.5713 21.328 29.3353 21.66 29.1673 22.108C28.9993 22.548 28.9153 23.108 28.9153 23.788C28.9153 24.468 28.9993 25.032 29.1673 25.48C29.3353 25.928 29.5713 26.264 29.8753 26.488C30.1873 26.712 30.5473 26.824 30.9553 26.824Z" fill="#FDFDFD"/>
</svg>
