<svg width="48" height="48" viewBox="0 0 48 48" fill="none" xmlns="http://www.w3.org/2000/svg">
<path d="M17.7904 0.824014C30.5881 -2.60726 43.7458 4.99086 47.177 17.7917C50.6051 30.5893 43.0109 43.747 30.2094 47.1751C17.4117 50.6064 4.25402 43.0083 0.822741 30.2106C-2.60468 17.4098 4.98892 4.25529 17.7904 0.824014Z" fill="#2B303B"/>
<path d="M0.164185 21.2089C0.436966 18.8797 1.05185 16.6204 1.96519 14.4985L7.23084 15.9105C6.22636 17.992 5.60441 20.266 5.42919 22.6203L0.164185 21.2089Z" fill="#FFBABA"/>
<path d="M9.66878 43.2452C7.81707 41.8659 6.15407 40.2176 4.75293 38.3364L8.60653 34.4796C9.9345 36.4334 11.6123 38.0887 13.5224 39.3916L9.66878 43.2452Z" fill="#FFBABA"/>
<path d="M47.8355 26.7903C47.5627 29.1195 46.9478 31.3788 46.0345 33.5007L40.7695 32.0887C41.7733 30.0072 42.3959 27.7332 42.5705 25.3789L47.8355 26.7903Z" fill="#FFBABA"/>
<path d="M38.3311 4.75787C40.1835 6.13334 41.8465 7.78543 43.247 9.66666L39.394 13.5196C38.0654 11.5697 36.3883 9.91056 34.4775 8.61148L38.3311 4.75787Z" fill="#FFBABA"/>
<path d="M17.7903 0.824046C18.9296 0.51853 20.0721 0.304159 21.2107 0.169373L22.6228 5.43117C21.4803 5.51846 20.3269 5.70717 19.1806 6.01654C18.0342 6.32269 16.9425 6.73346 15.9091 7.22832L14.5009 1.96652C15.5522 1.51531 16.6517 1.12956 17.7903 0.824046Z" fill="#FFBABA"/>
<path d="M33.4987 46.0327L32.0905 40.7709C31.0572 41.2689 29.966 41.6765 28.8197 41.9827C27.6734 42.2921 26.52 42.4846 25.3807 42.568L26.7889 47.8337C27.9282 47.6989 29.0707 47.4807 30.2093 47.1752C31.3486 46.869 32.4474 46.4871 33.4987 46.0327Z" fill="#FFBABA"/>
<circle cx="24" cy="23.9996" r="18.5" fill="#21262F"/>
<path fill-rule="evenodd" clip-rule="evenodd" d="M19.8538 8.52739C28.4012 6.23859 37.1816 11.3079 39.4736 19.8552C41.7624 28.3988 36.6899 37.183 28.1464 39.4718C19.6022 41.7606 10.8187 36.6913 8.52986 28.1439C6.23721 19.6004 11.3097 10.8162 19.8538 8.52739ZM9.86874 27.7877C11.9611 35.5893 19.9809 40.2214 27.7863 38.129C35.5911 36.0405 40.2201 28.0169 38.1309 20.2153C36.0391 12.4099 28.0187 7.77773 20.2139 9.87013C12.4085 11.9625 7.7802 19.9823 9.86874 27.7877Z" fill="#404757"/>
<path d="M11.3533 14.1711C12.1646 13.123 13.1075 12.1737 14.1659 11.3515L15.1594 12.3412C14.0895 13.1557 13.1434 14.1056 12.343 15.1608L11.3533 14.1711Z" fill="#FFBABA"/>
<path d="M8.12933 21.809C8.31162 20.4811 8.66399 19.189 9.1627 17.9631L10.5163 18.3271C10.0035 19.5459 9.6505 20.8411 9.48297 22.173L8.12933 21.809Z" fill="#FFBABA"/>
<path d="M9.16275 30.04C8.91564 29.4289 8.70448 28.7993 8.5299 28.144C8.35532 27.4931 8.22053 26.8417 8.13324 26.1902L9.48688 25.8263C9.57032 26.481 9.6942 27.1324 9.86878 27.7878C10.0434 28.4392 10.2616 29.0682 10.5164 29.676L9.16275 30.04Z" fill="#FFBABA"/>
<path d="M14.1697 36.6477C13.1255 35.8364 12.1755 34.8942 11.3495 33.8313L12.3431 32.8416C13.1543 33.9116 14.1043 34.8576 15.1633 35.6548L14.1697 36.6477Z" fill="#FFBABA"/>
<path d="M21.8115 39.8717C20.4796 39.6862 19.1876 39.337 17.9611 38.8351L18.325 37.4814C19.5445 37.9981 20.8397 38.3473 22.1715 38.5148L21.8115 39.8717Z" fill="#FFBABA"/>
<path d="M30.0386 38.8382C29.428 39.086 28.7972 39.2972 28.1464 39.4718C27.4949 39.6463 26.8435 39.7773 26.1888 39.8684L25.8287 38.5148C26.4796 38.4307 27.1349 38.3036 27.7863 38.129C28.4372 37.9544 29.0668 37.7362 29.6746 37.4846L30.0386 38.8382Z" fill="#FFBABA"/>
<path d="M36.6463 33.8313C35.835 34.8756 34.8928 35.8255 33.8338 36.6516L32.8402 35.658C33.9102 34.8467 34.8562 33.8936 35.6566 32.8384L36.6463 33.8313Z" fill="#FFBABA"/>
<path d="M39.8703 26.1902C39.6886 27.5182 39.3356 28.8102 38.8369 30.0361L37.4833 29.676C37.9967 28.4533 38.3498 27.162 38.5166 25.8263L39.8703 26.1902Z" fill="#FFBABA"/>
<path d="M38.8369 17.9631C39.0847 18.5703 39.299 19.2038 39.4736 19.8553C39.6478 20.5065 39.78 21.1578 39.8703 21.809L38.5134 22.173C38.4332 21.5215 38.3061 20.8668 38.1309 20.2153C37.9563 19.56 37.7381 18.931 37.4833 18.3271L38.8369 17.9631Z" fill="#FFBABA"/>
<path d="M33.8299 11.3547C34.878 12.166 35.8241 13.1089 36.6502 14.1679L35.6566 15.1577C34.8453 14.0877 33.8954 13.1416 32.8402 12.3445L33.8299 11.3547Z" fill="#FFBABA"/>
<path d="M26.192 8.12756C27.5206 8.31306 28.812 8.66223 30.0386 9.16414L29.6746 10.5178C28.4558 10.0011 27.1599 9.65194 25.8287 9.48442L26.192 8.12756Z" fill="#FFBABA"/>
<path d="M19.8538 8.52745C20.5047 8.35287 21.16 8.22194 21.8115 8.1308L22.1715 9.48444C21.5201 9.56852 20.8654 9.69561 20.2139 9.87019C19.5625 10.0448 18.9328 10.263 18.325 10.5178L17.9611 9.16095C18.5721 8.9132 19.203 8.70203 19.8538 8.52745Z" fill="#FFBABA"/>
<path d="M17.336 27.184L20.432 23.896C20.688 23.624 20.896 23.38 21.056 23.164C21.216 22.948 21.332 22.744 21.404 22.552C21.476 22.36 21.512 22.164 21.512 21.964C21.512 21.588 21.388 21.296 21.14 21.088C20.9 20.872 20.592 20.764 20.216 20.764C19.816 20.764 19.464 20.864 19.16 21.064C18.856 21.264 18.584 21.576 18.344 22L17.384 21.208C17.712 20.64 18.116 20.212 18.596 19.924C19.076 19.628 19.632 19.48 20.264 19.48C20.784 19.48 21.24 19.584 21.632 19.792C22.024 20 22.328 20.292 22.544 20.668C22.76 21.036 22.868 21.464 22.868 21.952C22.868 22.304 22.824 22.62 22.736 22.9C22.656 23.172 22.516 23.448 22.316 23.728C22.116 24 21.84 24.32 21.488 24.688L19.112 27.148L17.336 27.184ZM17.336 28V27.184L18.524 26.764H23.036V28H17.336ZM26.4562 28.12C25.8722 28.12 25.3522 28.02 24.8962 27.82C24.4402 27.612 24.0562 27.312 23.7442 26.92L24.6802 25.984C24.8482 26.24 25.0842 26.444 25.3882 26.596C25.7002 26.748 26.0482 26.824 26.4322 26.824C26.7842 26.824 27.0922 26.76 27.3562 26.632C27.6202 26.504 27.8282 26.32 27.9802 26.08C28.1322 25.84 28.2082 25.556 28.2082 25.228C28.2082 24.884 28.1322 24.6 27.9802 24.376C27.8362 24.144 27.6402 23.972 27.3922 23.86C27.1522 23.74 26.8922 23.68 26.6122 23.68C26.2922 23.68 26.0042 23.716 25.7482 23.788C25.5002 23.86 25.2562 23.988 25.0162 24.172L25.0522 23.308C25.1802 23.14 25.3282 23.004 25.4962 22.9C25.6642 22.788 25.8602 22.704 26.0842 22.648C26.3082 22.592 26.5722 22.564 26.8762 22.564C27.4682 22.564 27.9642 22.688 28.3642 22.936C28.7722 23.184 29.0802 23.516 29.2882 23.932C29.4962 24.34 29.6002 24.796 29.6002 25.3C29.6002 25.844 29.4642 26.328 29.1922 26.752C28.9282 27.176 28.5602 27.512 28.0882 27.76C27.6162 28 27.0722 28.12 26.4562 28.12ZM25.0162 24.172L24.2602 23.416L24.6322 19.6H25.8922L25.4602 23.572L25.0162 24.172ZM24.8722 20.836L24.6322 19.6H29.1322V20.836H24.8722Z" fill="#FDFDFD"/>
</svg>
