<svg width="48" height="48" viewBox="0 0 48 48" fill="none" xmlns="http://www.w3.org/2000/svg">
<path d="M17.7904 0.824014C30.5881 -2.60726 43.7458 4.99086 47.177 17.7917C50.6051 30.5893 43.0109 43.747 30.2094 47.1751C17.4117 50.6064 4.25402 43.0083 0.822741 30.2106C-2.60468 17.4098 4.98892 4.25529 17.7904 0.824014Z" fill="#2B303B"/>
<path d="M0.164185 21.2088C0.436966 18.8796 1.05185 16.6203 1.96519 14.4984L7.23084 15.9105C6.22636 17.9919 5.60441 20.266 5.42919 22.6203L0.164185 21.2088Z" fill="#9A5FFF"/>
<path d="M9.66878 43.2452C7.81707 41.8659 6.15407 40.2176 4.75293 38.3364L8.60653 34.4796C9.9345 36.4334 11.6123 38.0887 13.5224 39.3916L9.66878 43.2452Z" fill="#9A5FFF"/>
<path d="M47.8355 26.7903C47.5628 29.1195 46.9479 31.3788 46.0345 33.5007L40.7695 32.0887C41.7734 30.0072 42.396 27.7332 42.5705 25.3789L47.8355 26.7903Z" fill="#9A5FFF"/>
<path d="M38.3311 4.75793C40.1835 6.1334 41.8465 7.78549 43.247 9.66672L39.394 13.5197C38.0654 11.5698 36.3883 9.91062 34.4775 8.61154L38.3311 4.75793Z" fill="#9A5FFF"/>
<path d="M17.7904 0.824107C18.9297 0.518591 20.0721 0.30422 21.2108 0.169434L22.6228 5.43123C21.4803 5.51852 20.327 5.70723 19.1806 6.0166C18.0343 6.32276 16.9425 6.73352 15.9092 7.22838L14.501 1.96658C15.5523 1.51537 16.6518 1.12962 17.7904 0.824107Z" fill="#9A5FFF"/>
<path d="M33.4987 46.0327L32.0905 40.7709C31.0572 41.2689 29.966 41.6765 28.8197 41.9827C27.6734 42.2921 26.52 42.4846 25.3807 42.568L26.7889 47.8337C27.9282 47.6989 29.0707 47.4807 30.2093 47.1752C31.3486 46.869 32.4474 46.4871 33.4987 46.0327Z" fill="#9A5FFF"/>
<path fill-rule="evenodd" clip-rule="evenodd" d="M19.8539 8.52745C28.4013 6.23865 37.1816 11.3079 39.4737 19.8553C41.7625 28.3988 36.69 37.183 28.1465 39.4718C19.6023 41.7606 10.8187 36.6914 8.52992 28.144C6.23727 19.6005 11.3097 10.8162 19.8539 8.52745ZM9.8688 27.7878C11.9612 35.5893 19.981 40.2215 27.7864 38.1291C35.5912 36.0406 40.2201 28.0169 38.1309 20.2154C36.0392 12.4099 28.0187 7.77779 20.214 9.87019C12.4086 11.9626 7.78026 19.9824 9.8688 27.7878Z" fill="#404757"/>
<circle cx="24" cy="23.9996" r="18.5" fill="#21262F"/>
<path d="M11.3534 14.1711C12.1647 13.1229 13.1075 12.1736 14.1659 11.3514L15.1595 12.3412C14.0896 13.1557 13.1435 14.1056 12.3431 15.1608L11.3534 14.1711Z" fill="#9A5FFF"/>
<path d="M8.12939 21.809C8.31168 20.4811 8.66405 19.189 9.16276 17.9631L10.5164 18.3271C10.0036 19.5459 9.65056 20.8411 9.48304 22.173L8.12939 21.809Z" fill="#9A5FFF"/>
<path d="M9.16281 30.04C8.91571 29.4289 8.70454 28.7993 8.52996 28.144C8.35538 27.4931 8.22059 26.8417 8.1333 26.1902L9.48694 25.8263C9.57038 26.481 9.69426 27.1324 9.86884 27.7878C10.0434 28.4392 10.2616 29.0682 10.5165 29.676L9.16281 30.04Z" fill="#9A5FFF"/>
<path d="M14.1697 36.6476C13.1255 35.8364 12.1755 34.8942 11.3495 33.8313L12.3431 32.8416C13.1543 33.9115 14.1043 34.8575 15.1633 35.6547L14.1697 36.6476Z" fill="#9A5FFF"/>
<path d="M21.8115 39.8717C20.4796 39.6862 19.1876 39.337 17.9611 38.8351L18.325 37.4814C19.5445 37.9981 20.8397 38.3473 22.1715 38.5148L21.8115 39.8717Z" fill="#9A5FFF"/>
<path d="M30.0386 38.8382C29.428 39.086 28.7972 39.2972 28.1464 39.4718C27.4949 39.6463 26.8435 39.7773 26.1888 39.8684L25.8287 38.5148C26.4796 38.4307 27.1349 38.3036 27.7863 38.129C28.4372 37.9544 29.0668 37.7362 29.6746 37.4846L30.0386 38.8382Z" fill="#9A5FFF"/>
<path d="M36.6463 33.8313C35.835 34.8756 34.8928 35.8255 33.8338 36.6516L32.8402 35.658C33.9102 34.8467 34.8562 33.8936 35.6566 32.8384L36.6463 33.8313Z" fill="#9A5FFF"/>
<path d="M39.8703 26.1902C39.6886 27.5182 39.3356 28.8102 38.8369 30.0361L37.4833 29.676C37.9967 28.4533 38.3498 27.162 38.5166 25.8263L39.8703 26.1902Z" fill="#9A5FFF"/>
<path d="M38.8369 17.9631C39.0847 18.5703 39.299 19.2038 39.4736 19.8553C39.6478 20.5065 39.78 21.1578 39.8703 21.809L38.5134 22.173C38.4332 21.5215 38.3061 20.8668 38.1309 20.2153C37.9563 19.56 37.7381 18.931 37.4833 18.3271L38.8369 17.9631Z" fill="#9A5FFF"/>
<path d="M33.8299 11.3547C34.878 12.166 35.8241 13.1089 36.6502 14.1679L35.6566 15.1577C34.8453 14.0877 33.8954 13.1416 32.8402 12.3445L33.8299 11.3547Z" fill="#9A5FFF"/>
<path d="M26.192 8.12756C27.5206 8.31306 28.812 8.66223 30.0386 9.16414L29.6746 10.5178C28.4558 10.0011 27.1599 9.65194 25.8287 9.48442L26.192 8.12756Z" fill="#9A5FFF"/>
<path d="M19.8538 8.52739C20.5047 8.35281 21.16 8.22188 21.8115 8.13074L22.1715 9.48438C21.5201 9.56846 20.8654 9.69555 20.2139 9.87013C19.5625 10.0447 18.9328 10.2629 18.325 10.5177L17.9611 9.16089C18.5721 8.91314 19.203 8.70197 19.8538 8.52739Z" fill="#9A5FFF"/>
<path d="M15.964 28.12C15.38 28.12 14.86 28.02 14.404 27.82C13.948 27.612 13.564 27.312 13.252 26.92L14.188 25.984C14.356 26.24 14.592 26.444 14.896 26.596C15.208 26.748 15.556 26.824 15.94 26.824C16.292 26.824 16.6 26.76 16.864 26.632C17.128 26.504 17.336 26.32 17.488 26.08C17.64 25.84 17.716 25.556 17.716 25.228C17.716 24.884 17.64 24.6 17.488 24.376C17.344 24.144 17.148 23.972 16.9 23.86C16.66 23.74 16.4 23.68 16.12 23.68C15.8 23.68 15.512 23.716 15.256 23.788C15.008 23.86 14.764 23.988 14.524 24.172L14.56 23.308C14.688 23.14 14.836 23.004 15.004 22.9C15.172 22.788 15.368 22.704 15.592 22.648C15.816 22.592 16.08 22.564 16.384 22.564C16.976 22.564 17.472 22.688 17.872 22.936C18.28 23.184 18.588 23.516 18.796 23.932C19.004 24.34 19.108 24.796 19.108 25.3C19.108 25.844 18.972 26.328 18.7 26.752C18.436 27.176 18.068 27.512 17.596 27.76C17.124 28 16.58 28.12 15.964 28.12ZM14.524 24.172L13.768 23.416L14.14 19.6H15.4L14.968 23.572L14.524 24.172ZM14.38 20.836L14.14 19.6H18.64V20.836H14.38ZM23.4871 28.12C22.8551 28.12 22.2751 27.944 21.7471 27.592C21.2271 27.232 20.8111 26.728 20.4991 26.08C20.1871 25.432 20.0311 24.668 20.0311 23.788C20.0311 22.908 20.1831 22.148 20.4871 21.508C20.7991 20.86 21.2151 20.36 21.7351 20.008C22.2551 19.656 22.8311 19.48 23.4631 19.48C24.1031 19.48 24.6831 19.656 25.2031 20.008C25.7231 20.36 26.1351 20.86 26.4391 21.508C26.7511 22.148 26.9071 22.912 26.9071 23.8C26.9071 24.68 26.7511 25.444 26.4391 26.092C26.1351 26.74 25.7231 27.24 25.2031 27.592C24.6911 27.944 24.1191 28.12 23.4871 28.12ZM23.4631 26.824C23.8791 26.824 24.2391 26.712 24.5431 26.488C24.8471 26.264 25.0831 25.928 25.2511 25.48C25.4271 25.032 25.5151 24.468 25.5151 23.788C25.5151 23.116 25.4271 22.556 25.2511 22.108C25.0831 21.66 24.8431 21.328 24.5311 21.112C24.2271 20.888 23.8711 20.776 23.4631 20.776C23.0551 20.776 22.6951 20.888 22.3831 21.112C22.0791 21.328 21.8431 21.66 21.6751 22.108C21.5071 22.548 21.4231 23.108 21.4231 23.788C21.4231 24.468 21.5071 25.032 21.6751 25.48C21.8431 25.928 22.0791 26.264 22.3831 26.488C22.6951 26.712 23.0551 26.824 23.4631 26.824ZM33.3903 28L29.5023 23.62L33.3063 19.6H35.0703L30.8703 23.968V23.212L35.1903 28H33.3903ZM28.3143 28V19.6H29.6943V28H28.3143Z" fill="#FDFDFD"/>
</svg>
