<svg width="283" height="283" viewBox="0 0 283 283" fill="none" xmlns="http://www.w3.org/2000/svg">
<path d="M53.988 218.703C53.1652 217.106 49.1275 212.648 47.7205 210.872C46.2537 209.02 44.9831 206.992 43.672 205.029C43.2448 204.39 42.2642 203.32 42.0098 202.65C40.5532 199.813 38.8549 197.11 37.3355 194.308C35.8235 191.52 34.0831 187.696 33.0029 184.729C35.228 183.631 37.7246 182.887 40.0352 181.954C44.943 179.922 49.8655 177.925 54.8027 175.965C58.4348 174.527 62.2032 173.206 65.7234 171.516L72.0355 184.062C74.9743 187.749 77.3032 191.827 80.6055 195.252C78.1138 196.942 75.2364 199.957 72.8827 202.015L53.988 218.703Z" fill="#1B1F26"/>
<path d="M66.8306 203.076C66.6178 203.019 66.4074 202.953 66.1994 202.879C65.5208 202.645 65.0552 202.284 64.5524 201.778C63.6636 200.885 61.0272 197.364 60.5637 196.318C60.2695 195.654 60.1242 194.929 60.3989 194.237C61.1885 192.249 67.1271 189.186 69.2199 188.369C69.9667 188.241 70.62 188.185 71.2952 188.594C72.9885 189.621 75.1107 192.308 75.4944 194.272C75.646 195.049 75.5408 195.562 75.0885 196.211C73.7273 198.163 69.1314 202.677 66.8306 203.076Z" fill="#242A32"/>
<path d="M72.0352 184.067C70.3476 184.91 68.7172 186.058 67.1078 187.051L57.7058 192.852L48.0389 198.802C46.0177 200.046 43.9078 201.233 42.0095 202.655C40.5528 199.818 38.8546 197.115 37.3352 194.313C35.8231 191.525 34.0827 187.701 33.0026 184.734C35.2276 183.636 37.7243 182.892 40.0349 181.959C44.9426 179.927 49.8651 177.931 54.8023 175.97C58.4345 174.532 62.2029 173.211 65.723 171.521L72.0352 184.067Z" fill="#EF4444"/>
<path d="M58.0846 189.521C57.6404 189.431 57.1667 189.315 56.7532 189.125C55.1 188.366 53.3187 184.397 52.6677 182.688C52.2982 181.718 52.028 180.544 52.5229 179.571C53.4457 177.756 59.5979 176.059 61.582 175.484C62.2915 175.328 63.0157 175.239 63.6735 175.619C65.3334 176.579 66.6211 179.149 67.1234 180.945C67.341 181.723 67.4942 182.821 67.0604 183.554C66.0223 185.308 60.0985 189.015 58.0846 189.521Z" fill="#FF6666"/>
<path d="M84.7929 81.2663C83.5158 78.9372 77.7781 73.6492 75.6574 71.4878C72.8324 68.6084 70.0972 65.6404 67.2934 62.7397C65.0125 60.38 62.6487 58.0974 60.4259 55.6838C63.1125 53.2707 65.7982 50.7452 68.6453 48.523C70.97 46.7097 73.8193 45.1257 75.8952 43.0524C78.9823 41.4365 81.8175 39.4238 84.8659 37.7469C87.6598 36.2094 90.6786 34.9946 93.4117 33.383C94.6393 35.3948 95.4929 37.831 96.4967 39.9776L103.778 55.9431C105.18 59.0869 106.47 62.4818 108.133 65.4833C103.85 67.5661 99.8042 69.9752 95.7636 72.4794C93.5531 74.0499 91.3279 75.6689 89.2585 77.4216C87.7617 78.6896 86.3822 80.1132 84.7929 81.2663Z" fill="#1B1F26"/>
<path d="M96.8564 67.6047C96.6984 67.5508 96.5439 67.4882 96.393 67.4169C96.242 67.3457 96.0954 67.2662 95.9533 67.1784C95.8113 67.0906 95.6747 66.9952 95.5434 66.8923C95.412 66.7892 95.2868 66.6791 95.1679 66.5621C93.4612 64.8886 90.6704 61.2166 89.9967 58.9357C89.8335 58.3828 89.8419 57.7785 89.8349 57.2065C91.9856 55.0925 94.987 53.5386 97.8046 52.4925C97.9364 52.4851 98.0682 52.4775 98.2004 52.4761C99.0033 52.4683 99.5962 52.6306 100.165 53.2219C101.672 54.787 104.167 60.8422 104.026 63.0146C103.971 63.8608 103.656 64.4173 102.995 64.9457C101.572 66.0825 98.6795 67.7674 96.8564 67.6047Z" fill="#242A32"/>
<path d="M84.7885 81.2606C83.5114 78.9316 77.7737 73.6436 75.6531 71.4822C72.8281 68.6027 70.0928 65.6348 67.289 62.734C65.0081 60.3744 62.6443 58.0917 60.4215 55.6782C63.1081 53.265 65.7938 50.7396 68.6409 48.5174C70.9656 46.704 73.3391 44.8729 75.8909 43.0467C77.4317 45.6225 79.2758 48.0201 80.9633 50.502C85.9166 57.7873 91.0865 65.0091 95.7593 72.4738C93.5487 74.0442 91.3235 75.6633 89.2541 77.416C87.7573 78.684 86.3778 80.1076 84.7885 81.2606Z" fill="#EF4444"/>
<path d="M85.0792 76.3807C84.8015 76.2981 84.5234 76.2209 84.252 76.1186C83.0684 75.6731 77.4403 70.3015 76.8941 69.0517C76.5771 68.3263 76.5815 67.6257 76.9017 66.9044C77.6609 65.1934 82.1696 61.6809 83.9215 61.0318C84.1661 61.0114 84.1809 61.0041 84.4556 61.0137C85.6039 61.0539 86.4423 61.8813 87.1258 62.7185C88.4021 64.2817 90.8845 68.0431 91.3905 69.9503C91.5504 70.5524 91.4774 71.1689 91.4179 71.7792C90.1636 73.6198 87.2473 75.889 85.0792 76.3807Z" fill="#FF6666"/>
<path d="M163.018 60.8737C160.759 60.2404 158.412 59.7416 156.097 59.3587C155.096 59.193 149.99 58.6961 149.536 58.4948C149.339 58.4073 149.358 58.2886 149.295 58.1011C149.271 53.9091 149.974 49.5524 150.304 45.3603C150.882 38.0179 151.287 30.5903 152.103 23.2758C155.482 23.6658 158.925 24.0044 162.277 24.5882C165.484 25.1473 168.664 25.9361 171.85 26.6007C174.975 27.6144 178.187 28.4121 181.286 29.4828C184.497 30.591 187.618 32.0135 190.788 33.2388C189.996 35.1774 189.029 37.0857 188.166 38.9986L182.242 52.1613L178.644 60.2092C177.888 61.9196 177.209 63.789 176.234 65.3837C174.199 64.83 172.166 63.835 170.182 63.0975C167.838 62.226 165.419 61.5637 163.018 60.8737Z" fill="#1B1F26"/>
<path d="M173.04 61.1896C171.599 60.747 168.276 60.0297 167.393 58.7116C166.747 57.7466 166.876 55.942 167.068 54.8558C167.475 52.5422 167.987 48.104 170.062 46.7429C170.958 46.1553 171.845 46.3756 172.816 46.5857C175.165 47.3777 177.888 48.0313 179.872 49.5552C179.985 49.9587 180.107 50.3699 180.165 50.7857C180.437 52.7504 177.026 59.276 175.662 60.949C174.772 61.1879 173.954 61.2458 173.04 61.1896Z" fill="#242A32"/>
<path d="M163.026 60.8734C160.767 60.2401 158.42 59.7413 156.105 59.3584C155.104 59.1927 149.998 58.6958 149.544 58.4945C149.347 58.407 149.366 58.2883 149.303 58.1009C149.279 53.9088 149.982 49.5522 150.312 45.36C150.89 38.0176 151.295 30.59 152.111 23.2755C155.49 23.6655 158.933 24.0042 162.285 24.5879C165.492 25.147 168.672 25.9359 171.858 26.6004C171.04 29.1706 170.446 31.8266 169.77 34.4368L166.439 47.3214C165.306 51.7833 163.791 56.3441 163.026 60.8734Z" fill="#EF4444"/>
<path d="M155.035 56.4324C153.775 56.1567 153.147 55.564 152.344 54.6335C152.115 52.0771 152.239 49.1168 152.482 46.5588C152.597 45.3512 152.901 44.0393 153.923 43.2664C155.345 42.1913 158.079 43.0222 159.73 43.3037C161.068 43.4699 162.345 43.8406 163.603 44.3179C163.879 44.6422 164.156 44.9684 164.34 45.3557C165.309 47.3963 162.652 54.0946 161.805 56.3224C159.569 57.6452 157.418 56.8599 155.035 56.4324Z" fill="#FF6666"/>
<path d="M199.357 80.9052C197.728 79.8996 196.337 78.3248 194.861 77.0952C192.834 75.4073 190.669 73.8593 188.538 72.3068C186.837 70.9786 184.604 69.7858 182.696 68.7507C181.399 68.047 176.84 66.1292 176.235 65.3842C177.21 63.7896 177.889 61.9202 178.645 60.2098L182.243 52.1619L188.167 38.9992C189.03 37.0863 189.997 35.1779 190.789 33.2394C193.504 34.8159 196.468 36.0417 199.242 37.5236C202.333 39.1721 205.299 41.1468 208.282 42.9847C209.78 44.5471 213.225 46.6225 215.103 48.0411C217.229 49.6448 219.159 51.47 221.207 53.1643C222.085 53.8926 223.337 54.6539 224.012 55.5625C222.373 56.5554 220.155 59.4418 218.733 60.9519C213.965 66.0175 209.148 71.1075 204.248 76.043C202.658 77.6452 201.149 79.5416 199.357 80.9052Z" fill="#1B1F26"/>
<path d="M199.323 76.5672C197.426 76.0084 194.593 73.8844 193.639 72.1089C193.209 71.3087 193.146 70.502 193.44 69.6458C193.827 68.5166 196.947 63.6893 197.8 62.6672C198.219 62.1654 198.714 61.7123 199.316 61.4409C200.223 61.0317 200.946 61.3268 201.823 61.6703C202.273 61.949 202.708 62.2498 203.127 62.5728C204.451 63.5909 208.019 65.8867 208.159 67.6883C208.238 68.7095 207.506 69.7789 206.885 70.5219C205.617 72.0398 202.425 75.4736 200.669 76.3101C200.26 76.5049 199.769 76.529 199.323 76.5672Z" fill="#242A32"/>
<path d="M188.539 72.3036C186.838 70.9755 184.605 69.7827 182.697 68.7475C181.4 68.0438 176.841 66.1261 176.235 65.3811C177.211 63.7865 177.89 61.9171 178.646 60.2066L182.244 52.1587L188.168 38.9961C189.03 37.0831 189.998 35.1748 190.789 33.2363C193.505 34.8128 196.469 36.0385 199.243 37.5205C202.334 39.169 205.3 41.1436 208.283 42.9816C206.805 44.8823 205.408 46.9085 204.14 48.9535C203.436 50.0871 202.627 51.3337 201.88 52.4406C201.087 53.6138 200.368 54.6649 199.552 55.8228C197.889 58.1819 196.357 60.6353 194.722 63.0142C192.619 66.0733 190.399 69.0883 188.539 72.3036Z" fill="#EF4444"/>
<path d="M187.051 67.7848C185.823 67.4751 184.574 66.8087 183.469 66.1905C182.317 65.5454 181.199 64.7653 180.864 63.4119C180.334 61.269 183.247 55.3533 184.411 53.3878C184.781 53.1448 185.199 52.9029 185.615 52.7481C186.503 52.4178 187.24 52.6597 188.077 52.9988C189.944 53.985 192.355 54.9616 193.922 56.3663C194.503 56.8877 194.791 57.54 194.812 58.3202C194.87 60.4163 191.364 64.9174 189.88 66.4579C188.951 67.4233 188.395 67.7533 187.051 67.7848Z" fill="#FF6666"/>
<path d="M33.0044 184.732C32.3382 183.684 31.9856 182.114 31.5752 180.929C30.9281 179.06 30.1729 177.208 29.5906 175.32C28.8007 172.759 28.1879 170.135 27.5056 167.544C27.3305 166.88 27.0122 166.153 26.9131 165.485C26.6248 162.55 25.8397 159.691 25.4464 156.772C24.9618 153.186 24.9202 149.518 24.2856 145.958C33.7997 145.272 43.3419 145.145 52.8622 144.588C55.1497 144.454 57.4484 144.56 59.7288 144.324C60.0366 146.49 60.1218 148.685 60.3762 150.858C60.6655 153.328 61.1584 155.764 61.6755 158.196C62.2049 160.607 62.8541 163.165 63.6424 165.499C64.3157 167.493 65.2296 169.478 65.7249 171.519C62.2048 173.208 58.4363 174.529 54.8042 175.968C49.867 177.928 44.9445 179.925 40.0367 181.957C37.7261 182.89 35.2295 183.634 33.0044 184.732Z" fill="#1B1F26"/>
<path d="M51.2117 174.642C50.7898 174.511 50.309 174.342 49.9314 174.113C48.3028 173.126 47.2568 168.972 46.8684 167.236C46.621 166.13 46.5768 164.912 47.2406 163.938C48.4057 162.229 54.2945 161.692 56.397 161.345C57.1625 161.307 57.9345 161.291 58.6149 161.703C60.0473 162.571 60.7046 164.715 61.0948 166.253C61.4038 167.47 61.6116 169.003 60.8756 170.11C59.7985 171.73 53.1006 174.196 51.2117 174.642Z" fill="#242A32"/>
<path d="M26.9112 165.483C26.2323 162.583 25.8962 160.112 25.4445 156.77C24.9598 153.183 24.4726 149.805 24.2837 145.955C33.7978 145.27 43.34 145.143 52.8603 144.585C55.1478 144.452 57.4465 144.557 59.7268 144.322C60.0346 146.488 60.1199 148.682 60.3743 150.855C60.6635 153.326 61.1565 155.762 61.6736 158.194C59.0826 158.32 56.2001 159.299 53.6536 159.862L36.7596 163.468C33.5616 164.165 30.1629 165.197 26.9112 165.483Z" fill="#EF4444"/>
<path d="M47.0591 158.696C46.4493 158.531 45.8416 158.394 45.4028 157.904C43.998 156.336 43.5933 150.501 43.7478 148.448L43.911 148.27C44.028 148.14 44.1424 148.008 44.2619 147.881C46.1188 145.895 51.4972 146.53 54.1605 146.472C54.5258 146.527 54.9001 146.578 55.2576 146.674C56.0529 146.886 56.6167 147.456 57.0066 148.158C58.1079 150.141 58.1242 153.522 57.5607 155.664C55.4883 157.377 49.7827 158.505 47.0591 158.696Z" fill="#FF6666"/>
<path d="M200.441 243.451C199.398 244.151 198.03 244.661 196.896 245.223C193.141 247.082 189.418 248.773 185.534 250.341C184.38 250.807 183.236 251.412 182.041 251.752C180.554 247.133 178.753 242.58 177.13 238.003C174.821 231.495 172.616 224.919 170.11 218.486C172.199 217.454 174.433 216.763 176.546 215.784C178.634 214.815 180.728 213.475 182.873 212.682C186.791 210.501 191.247 207.808 194.523 204.717C199.606 211.522 205.224 218.015 210.588 224.608C212.615 227.099 215.015 229.594 216.763 232.264C215.616 233.311 214.301 234.203 213.052 235.124C208.963 238.14 204.726 240.733 200.441 243.451Z" fill="#1B1F26"/>
<path d="M178.702 232.405C177.728 232.156 177.068 231.795 176.48 230.962C175.648 229.784 173.532 222.749 173.848 221.413C174.085 220.413 174.913 219.687 175.745 219.161C177.718 217.909 180.184 217.004 182.508 217.533C183.927 219.199 187.503 224.624 187.763 226.785C187.845 227.46 187.764 228.08 187.321 228.617C186.276 229.882 180.448 232.234 178.702 232.405Z" fill="#242A32"/>
<path d="M200.435 243.448C198.639 240.835 197.191 237.871 195.638 235.105L187.028 219.815C185.755 217.555 184.551 214.641 182.867 212.678C186.785 210.498 191.241 207.804 194.517 204.714C199.599 211.519 205.218 218.012 210.582 224.605C212.609 227.096 215.009 229.591 216.757 232.261C215.61 233.307 214.295 234.2 213.045 235.121C208.957 238.137 204.72 240.73 200.435 243.448Z" fill="#EF4444"/>
<path d="M193.189 224.959C192.627 224.822 192.104 224.645 191.721 224.191C190.64 222.914 186.82 216.265 187.119 214.742C187.33 213.666 188.114 212.807 188.968 212.171C191.003 210.657 192.565 209.457 195.209 209.836C196.846 211.316 201.379 216.254 201.707 218.319C201.812 218.979 201.737 219.678 201.3 220.211C200.63 221.029 196.018 224.146 194.911 224.607C194.369 224.833 193.767 224.891 193.189 224.959Z" fill="#FF6666"/>
<path d="M225.048 144.218C225.128 139.508 225.112 134.579 224.319 129.917C223.568 125.333 222.593 120.965 221.353 116.487C224.196 115.135 228.134 114.296 231.209 113.363L245.448 109.005C248.7 108.016 252.006 107.088 255.21 105.959C255.649 106.757 255.774 108.023 256.005 108.927C257.377 114.299 258.895 119.894 259.462 125.412C259.714 128.655 260.206 131.902 260.371 135.147C260.545 138.542 260.392 141.986 260.43 145.388C258.643 145.778 250.819 145.077 248.66 144.955C246.208 144.816 243.752 144.864 241.299 144.773C237.578 144.634 233.917 144.341 230.183 144.293C228.538 144.273 226.648 143.894 225.048 144.218Z" fill="#1B1F26"/>
<path d="M228.96 127.435C228.451 127.264 227.908 127.111 227.502 126.744C226.121 125.495 225.439 122.363 225.383 120.573C225.358 119.775 225.5 118.825 226.099 118.24C227.612 116.761 234.418 114.653 236.591 114.687C236.877 114.867 237.167 115.046 237.434 115.252C238.974 116.437 239.671 120.814 239.875 122.713C239.986 123.737 239.931 124.986 239.2 125.791C238.021 127.091 230.911 127.334 228.96 127.435Z" fill="#242A32"/>
<path d="M225.048 144.218C225.128 139.508 225.112 134.579 224.319 129.917C226.393 130.089 258.142 125.983 259.462 125.412C259.714 128.655 260.206 131.902 260.371 135.147C260.545 138.542 260.392 141.986 260.43 145.388C258.643 145.778 250.819 145.077 248.66 144.955C246.208 144.816 243.752 144.864 241.299 144.773C237.578 144.634 233.917 144.341 230.183 144.293C228.538 144.273 226.648 143.894 225.048 144.218Z" fill="#EF4444"/>
<path d="M229.666 142.023C229.219 141.827 228.847 141.654 228.547 141.256C227.507 139.879 227.452 137.01 227.646 135.364C227.749 134.496 228.02 133.142 228.797 132.601C230.54 131.387 237.596 130.562 239.753 130.953C240.034 131.221 240.326 131.494 240.556 131.808C241.584 133.213 241.735 138.27 241.457 140.036C241.324 140.885 240.985 141.82 240.244 142.326C238.7 143.379 231.552 142.434 229.666 142.023Z" fill="#FF6666"/>
<path d="M252.205 184.36C248.169 183.074 244.277 181.242 240.326 179.711C235.642 177.922 230.978 176.078 226.337 174.181C224.045 173.261 221.699 172.424 219.452 171.401L219.277 171.238C219.679 169.558 220.482 167.906 221.037 166.262C221.946 163.569 222.662 160.731 223.258 157.954C223.695 155.445 224.188 152.909 224.468 150.379C224.694 148.329 224.74 146.26 225.05 144.22C226.65 143.897 228.539 144.275 230.184 144.296C233.919 144.343 237.579 144.637 241.3 144.775C243.753 144.867 246.21 144.819 248.662 144.958C250.82 145.08 258.644 145.781 260.432 145.391C260.46 146.475 260.186 147.694 260.107 148.8C259.958 150.883 259.862 152.984 259.61 155.057C259.195 158.478 258.503 161.907 257.921 165.305C256.465 171.836 254.371 178.044 252.205 184.36Z" fill="#1B1F26"/>
<path d="M229.216 157.08C228.736 156.979 228.153 156.682 227.791 156.348C227.022 155.636 226.829 154.469 226.82 153.473C226.804 151.75 227.137 148.864 228.446 147.651C229.963 146.244 236.61 146.907 238.82 146.995C239.791 147.435 240.343 147.975 240.998 148.809C241.257 150.955 240.858 154.229 240.339 156.323C240.1 157.284 239.636 158.211 238.739 158.71C236.899 159.734 231.362 157.688 229.216 157.08Z" fill="#242A32"/>
<path d="M252.205 184.36C248.169 183.074 244.277 181.242 240.326 179.711C235.642 177.922 230.978 176.078 226.337 174.181C224.045 173.261 221.699 172.424 219.452 171.401L219.277 171.238C219.679 169.558 220.482 167.906 221.037 166.262C221.946 163.569 222.662 160.731 223.258 157.954C230.94 159.659 238.632 161.315 246.335 162.922C250.126 163.727 254.083 164.885 257.921 165.305C256.465 171.836 254.371 178.044 252.205 184.36Z" fill="#EF4444"/>
<path d="M233.048 174.811C230.977 174.153 224.65 171.922 223.687 170.014C222.694 168.044 224.428 164.55 225.095 162.63C226.384 161.663 227.19 161.523 228.752 161.707C230.726 162.066 235.978 162.513 237.357 163.88C237.908 164.428 238.082 165.324 238.082 166.07C238.082 167.945 236.556 172.85 235.209 174.154C234.572 174.77 233.896 174.799 233.048 174.811Z" fill="#FF6666"/>
<path d="M162.814 256.815C161.992 257.176 160.597 257.143 159.671 257.252C154.018 257.916 148.474 258.304 142.786 258.567C142.572 256.651 142.657 254.675 142.659 252.747L142.68 242.854L142.662 230.078C142.663 227.808 142.549 225.441 142.772 223.183C145.219 222.971 147.681 222.939 150.13 222.747C152.318 222.576 154.506 222.246 156.681 221.963C161.175 221.012 165.785 220.062 170.107 218.485C172.614 224.919 174.819 231.494 177.127 238.002C178.751 242.579 180.552 247.132 182.038 251.751C175.862 254.066 169.228 255.358 162.814 256.815Z" fill="#1B1F26"/>
<path d="M162.809 256.814C162.254 254.744 162.023 252.588 161.655 250.478L159.583 238.58L157.605 227.289C157.296 225.522 156.845 223.747 156.676 221.962C161.17 221.011 165.78 220.061 170.103 218.484C172.609 224.918 174.814 231.493 177.123 238.001C178.746 242.578 180.547 247.131 182.034 251.75C175.857 254.065 169.223 255.357 162.809 256.814Z" fill="#EF4444"/>
<path d="M162.854 237.29C161.911 236.818 161.301 236.239 160.922 235.243C160.124 233.143 159.145 227.107 160.133 225.015C160.459 224.325 161.165 223.887 161.872 223.661C163.868 223.022 166.584 222.042 168.557 223.032C169.98 224.752 172.451 230.646 172.486 232.845C172.496 233.494 172.385 234.25 171.885 234.713C170.634 235.875 164.566 237.388 162.854 237.29Z" fill="#FF6666"/>
<path d="M24.2866 145.957C24.1843 141.781 24.275 138.117 24.5382 134.04C24.6747 131.924 24.9731 127.807 25.1084 125.718C25.3209 122.433 26.2545 119.132 26.9053 115.903C27.5469 112.708 28.631 109.602 29.3116 106.413C30.8373 106.629 32.4014 107.229 33.8743 107.684L41.4929 110.028L54.2451 113.92C57.2163 114.804 60.3448 115.576 63.2304 116.697C62.5309 119.039 61.8642 121.57 61.4389 123.973C61.0771 126.016 60.9242 128.272 60.3167 130.245C59.9262 134.962 59.7598 139.591 59.7298 144.323C57.4494 144.559 55.1507 144.453 52.8632 144.587C43.3429 145.144 33.8007 145.271 24.2866 145.957Z" fill="#1B1F26"/>
<path d="M45.5123 142.385C44.9099 142.153 44.346 141.917 43.9429 141.388C42.7899 139.875 43.1424 135.389 43.4581 133.56C43.6399 132.509 44.0862 131.384 45.0218 130.785C46.7007 129.716 52.3257 131.231 54.3416 131.627C55.0207 131.801 55.6643 132.01 56.1675 132.522C57.3017 133.677 57.2991 135.759 57.2195 137.273C57.1465 138.664 56.9161 140.325 55.7671 141.266C54.4404 142.353 47.3434 142.624 45.5123 142.385Z" fill="#242A32"/>
<path d="M60.313 130.244C52.1529 129.305 43.9883 128.222 35.8456 127.136C32.3219 126.667 28.5646 126.494 25.1046 125.716C25.7132 122.793 26.2507 119.131 26.9016 115.902C27.5431 112.706 28.6273 109.6 29.3078 106.411C30.8335 106.627 32.3977 107.228 33.8705 107.683L41.4892 110.026L54.2414 113.919C57.2126 114.802 60.3411 115.575 63.2266 116.695C62.5272 119.038 61.8604 121.569 61.4351 123.971C61.0734 126.014 60.9204 128.271 60.313 130.244Z" fill="#EF4444"/>
<path d="M47.7589 126.339C47.0813 126.143 46.4145 125.894 45.7479 125.668C45.5972 125.443 45.4526 125.213 45.3142 124.979C44.2903 123.207 45.5284 119.089 46.0675 117.207C46.3413 116.246 46.8447 115.046 47.8045 114.58C49.7452 113.634 54.4237 115.931 56.4374 116.652C57.4833 117.029 58.4826 117.412 59.0086 118.457C60.0087 120.444 58.7311 123.783 58.0738 125.752C57.9441 125.866 57.8154 125.982 57.6805 126.09C55.6106 127.75 50.3365 126.653 47.7589 126.339Z" fill="#FF6666"/>
<path d="M85.1887 243.677C80.4517 240.79 75.8123 237.893 71.3373 234.603C70.404 233.916 69.1876 233.198 68.3773 232.383C66.2042 230.204 63.6612 228.376 61.4065 226.278C58.82 223.871 56.4985 221.194 53.9932 218.706L72.8879 202.018C75.2416 199.96 78.119 196.946 80.6107 195.255C83.7042 198.698 87.0106 202.239 90.8268 204.898C92.9386 207.245 99.4087 211.008 102.28 212.714C101.26 215.313 98.9761 218.832 97.5702 221.351C93.4368 228.758 89.0021 236.108 85.1887 243.677Z" fill="#1B1F26"/>
<path d="M91.1175 224.821C89.3583 224.319 84.7534 221.454 83.6715 220.032C83.1901 219.399 82.966 218.675 83.1042 217.885C83.3905 216.245 88.3385 210.71 89.7991 209.742C90.3192 209.531 90.8246 209.426 91.3847 209.53C93.5524 209.936 96.2961 211.974 97.5524 213.742C97.7269 216.469 95.3783 220.954 93.7339 223.168C92.9514 224.222 92.4207 224.626 91.1175 224.821Z" fill="#242A32"/>
<path d="M68.3747 232.381C66.2017 230.201 63.6586 228.374 61.404 226.275C58.8174 223.869 56.4959 221.191 53.9907 218.704L72.8854 202.016C75.2391 199.958 78.1164 196.943 80.6082 195.253C83.7016 198.696 87.008 202.236 90.8243 204.895C88.4778 207.248 86.4628 210.04 84.3788 212.628L73.558 226.084C71.8768 228.178 70.265 230.476 68.3747 232.381Z" fill="#EF4444"/>
<path d="M77.5817 214.93C76.2657 214.452 71.6255 210.143 70.9445 208.82C70.6306 208.21 70.5816 207.613 70.8245 206.97C71.6311 204.839 76.8403 200.728 78.9358 199.856C79.2182 199.801 79.4929 199.77 79.7807 199.784C81.4364 199.863 83.2068 201.608 84.2386 202.8C85.4563 204.208 85.7584 205.193 85.6424 206.987C84.0869 208.977 82.7292 211.175 81.0879 213.089C80.0248 214.328 79.1972 214.801 77.5817 214.93Z" fill="#FF6666"/>
<path d="M122.9 256.964C122.182 256.967 120.268 256.821 118.298 256.407C115.735 255.868 115.01 255.542 112.483 254.847C109.521 254.031 106.738 253.091 103.785 252.028C103.513 251.965 103.43 251.936 103.178 251.787C100.129 250.474 96.9979 249.34 93.9636 247.995C90.9929 246.678 88.0892 245.127 85.1824 243.672C88.9958 236.103 93.4305 228.753 97.5639 221.346C98.9698 218.827 101.254 215.308 102.274 212.709C104.259 213.729 106.209 214.902 108.245 215.809C110.479 216.804 112.839 217.53 115.1 218.472C119.551 219.836 123.939 221.103 128.531 221.931C130.884 222.317 133.249 222.615 135.625 222.823C138 223.031 140.38 223.15 142.765 223.18C142.542 225.438 142.657 227.804 142.655 230.074L142.674 242.851L142.652 252.744C142.651 254.672 142.565 256.647 142.779 258.564C141.742 258.386 140.586 258.427 139.532 258.381C137.103 258.276 134.654 258.214 132.232 258.021C129.201 257.779 125.921 256.804 122.9 256.964Z" fill="#1B1F26"/>
<path d="M116.489 236.115C115.583 235.907 114.48 235.637 113.689 235.152C113.04 234.754 112.517 234.214 112.344 233.455C111.898 231.505 114.813 225.156 115.93 223.247C116.081 223.147 116.235 223.052 116.393 222.961C118.266 221.899 120.965 223.039 122.884 223.568C123.564 223.837 124.165 224.166 124.569 224.801C125.775 226.699 124.76 231.749 124.28 233.928C124.033 235.047 123.475 236.347 122.432 236.945C121.055 237.734 117.994 236.506 116.489 236.115Z" fill="#242A32"/>
<path d="M150.02 238.961C149.096 239.05 147.964 239.143 147.06 238.933C146.319 238.76 145.652 238.413 145.246 237.748C144.204 236.039 144.949 229.091 145.4 226.926C145.511 226.783 145.628 226.644 145.748 226.509C147.185 224.908 150.106 225.136 152.093 225.031C152.823 225.07 153.498 225.192 154.083 225.668C155.829 227.087 156.472 232.2 156.71 234.42C156.831 235.56 156.716 236.971 155.917 237.868C154.862 239.052 151.571 238.856 150.02 238.961Z" fill="#242A32"/>
<path d="M103.183 251.788C100.133 250.475 97.0023 249.341 93.968 247.996C90.9973 246.679 88.0936 245.128 85.1868 243.673C89.0002 236.104 93.4349 228.754 97.5683 221.347C98.9742 218.828 101.258 215.309 102.278 212.71C104.263 213.73 106.214 214.903 108.25 215.81C110.483 216.805 112.844 217.531 115.104 218.473C114.293 220.134 113.817 222.045 113.196 223.795C112.066 226.978 103.832 251.227 103.183 251.788Z" fill="#EF4444"/>
<path d="M104.626 232.065C102.97 231.31 101.295 230.601 99.6373 229.853C98.7461 229.451 97.6652 228.911 97.3289 227.926C96.9338 226.768 97.2886 225.592 97.8101 224.54C98.7451 222.653 100.663 218.964 102.356 217.697C102.753 217.4 103.266 217.254 103.733 217.1C105.406 217.147 108.942 218.611 110.09 219.827C110.713 220.487 110.955 221.312 110.891 222.206C110.78 223.753 108.534 230.839 107.423 231.703C106.604 232.34 105.585 232.219 104.626 232.065Z" fill="#FF6666"/>
<path d="M122.603 256.916C123.143 253.942 123.683 250.968 124.345 247.697C125.378 241.879 126.377 236.056 127.341 230.227C127.787 227.552 128.579 224.636 128.537 221.936C130.89 222.322 133.255 222.62 135.631 222.828C138.006 223.036 140.386 223.155 142.771 223.184C142.548 225.443 142.662 227.809 142.661 230.079L142.68 242.856L142.658 252.748C142.657 254.676 142.571 256.652 142.785 258.568C141.748 258.391 140.592 258.432 139.538 258.386C137.109 258.281 134.66 258.219 132.238 258.026C129.207 257.784 126.054 257.63 122.603 256.916Z" fill="#EF4444"/>
<path d="M130.814 238.929C130.683 238.895 130.551 238.862 130.422 238.822C129.626 238.573 129.043 238.134 128.669 237.375C127.544 235.094 129.521 228.762 130.395 226.318C130.738 226.077 131.11 225.829 131.495 225.659C133.292 224.866 137.105 225.502 138.857 226.236C138.991 226.361 139.061 226.418 139.174 226.548C140.481 228.065 140.45 233.952 140.318 235.955C140.253 236.954 140.017 238.288 139.172 238.943C137.928 239.91 132.534 239.061 130.814 238.929Z" fill="#FF6666"/>
<path d="M221.357 116.488C220.321 112.867 218.051 106.487 216.001 103.413C214.784 101.073 213.526 98.7177 212.099 96.4972C211.002 94.7907 209.766 93.1734 208.688 91.4549C205.771 87.7214 202.528 84.407 199.362 80.9047C201.153 79.541 202.662 77.6447 204.253 76.0425C209.152 71.107 213.969 66.017 218.737 60.9514C220.159 59.4413 222.378 56.5549 224.016 55.562C225.826 57.9906 228.642 60.2721 230.698 62.5962C232.915 65.1058 234.762 68.043 237.2 70.3391C238.5 72.395 240.584 75.3679 242.011 77.606C243.467 79.8911 244.758 82.3176 246.077 84.6844C246.609 85.6399 247.054 86.6471 247.688 87.5409C248.372 88.5696 248.833 89.9465 249.353 91.0834C251.593 95.9819 253.376 100.905 255.215 105.961C252.01 107.09 248.704 108.018 245.453 109.007L231.214 113.365C228.139 114.297 224.2 115.136 221.357 116.488Z" fill="#1B1F26"/>
<path d="M218.661 99.4216C217.322 99.0365 216.604 98.6578 215.828 97.4679C215.076 96.3138 213.157 93.6575 213.536 92.2568C214.075 90.2647 219.146 86.4873 221.064 85.5202C222.274 84.9097 222.94 84.837 224.231 85.2546C225.51 86.4457 228.482 91.1601 228.74 92.8122C228.853 93.5384 228.706 94.2431 228.26 94.8335C227.156 96.296 220.592 99.1959 218.661 99.4216Z" fill="#242A32"/>
<path d="M221.357 116.488C220.321 112.867 218.051 106.487 216.001 103.413C219.912 102.105 223.656 99.6769 227.333 97.8103C234.104 94.374 240.959 91.0538 247.688 87.5409C248.372 88.5696 248.833 89.9465 249.353 91.0834C251.593 95.9819 253.376 100.905 255.215 105.961C252.01 107.09 248.704 108.018 245.453 109.007L231.214 113.365C228.139 114.297 224.2 115.136 221.357 116.488Z" fill="#EF4444"/>
<path d="M224.879 112.959C223.734 112.59 223.184 112.15 222.532 111.121C221.566 109.594 220.316 106.92 220.793 105.11C221.084 104.006 222.202 103.315 223.128 102.756C224.791 101.753 228.235 99.4554 230.096 99.2495C230.739 99.1784 231.41 99.3777 232.032 99.5276C233.06 100.547 235.589 106.395 235.7 107.758C235.76 108.498 235.468 109.215 234.977 109.76C233.554 111.34 227.119 112.789 224.879 112.959Z" fill="#FF6666"/>
<path d="M208.686 91.4566C205.769 87.723 202.526 84.4086 199.359 80.9063C201.151 79.5426 202.66 77.6463 204.25 76.0441C209.15 71.1086 213.967 66.0186 218.735 60.953C220.157 59.4429 222.375 56.5565 224.014 55.5636C226 57.895 228.64 60.2737 230.696 62.5978C232.913 65.1074 234.759 68.0446 237.198 70.3407C230.732 75.228 224.226 80.0618 217.68 84.8423C214.717 87.0173 211.798 89.5064 208.686 91.4566Z" fill="#EF4444"/>
<path d="M210.141 87.2111C209.973 87.1638 209.805 87.1143 209.638 87.0629C207.945 86.5453 205.426 83.7111 204.635 82.1103C204.339 81.5101 204.21 80.8674 204.462 80.2347C205.237 78.2965 209.819 72.9792 211.676 72.2634C212.482 71.953 213.139 72.1346 213.905 72.4544C215.371 73.8948 219.099 77.269 219.499 79.1837C219.659 79.9489 219.44 80.6906 219 81.3215C218.185 82.4928 213.142 86.0443 211.681 86.7781C211.188 87.0258 210.682 87.1253 210.141 87.2111Z" fill="#FF6666"/>
<path d="M108.136 65.4771C106.474 62.4756 105.183 59.0807 103.782 55.9368L96.5001 39.9714C95.4963 37.8248 94.6427 35.3886 93.4151 33.3768C99.4771 30.6173 105.907 28.3934 112.346 26.682C118.777 25.2824 125.402 23.5863 132.011 23.3907C136.486 22.6807 141.848 22.774 146.408 22.9862C148.276 23.072 150.251 23.3559 152.111 23.2737C151.295 30.5882 150.89 38.0158 150.312 45.3581C149.982 49.5503 149.279 53.907 149.303 58.099C149.244 58.1748 149.062 58.3511 148.97 58.3704C148.078 58.56 145.031 58.2211 143.92 58.1892C141.029 58.1069 137.966 58.1116 135.105 58.5066C130.409 59.0523 125.952 59.9562 121.331 60.8828C119.238 61.4795 117.078 62.0136 115.043 62.7858C112.783 63.6431 110.448 64.8546 108.136 65.4771Z" fill="#1B1F26"/>
<path d="M124.978 57.1059C124.556 56.9817 124.101 56.826 123.715 56.6149C122.184 55.7779 120.925 50.257 120.483 48.4472C120.234 47.4259 119.969 45.8727 120.599 44.9514C121.725 43.3028 126.216 43.0629 128.103 42.7549C129.045 42.6859 129.993 42.5963 130.805 43.1816C131.772 43.8778 132.2 44.9814 132.368 46.1214C132.662 48.1113 132.968 53.92 131.744 55.3855C130.607 56.7466 126.637 56.9664 124.978 57.1059Z" fill="#242A32"/>
<path d="M108.128 65.4779C106.465 62.4764 105.175 59.0815 103.773 55.9376L96.4917 39.9722C95.4878 37.8256 94.6342 35.3894 93.4067 33.3776C99.4687 30.6181 105.899 28.3942 112.337 26.6828C113.116 31.1269 114.714 36.0908 115.887 40.528C117.68 47.3036 119.318 54.1685 121.322 60.8836C119.229 61.4803 117.07 62.0144 115.034 62.7866C112.775 63.6439 110.439 64.8554 108.128 65.4779Z" fill="#EF4444"/>
<path d="M110.823 61.1771C110.489 61.0969 110.152 61.0167 109.824 60.9086C108.712 60.5414 108.244 59.5682 107.731 58.5943C106.817 56.862 103.829 52.0359 104.618 50.0201C105.251 48.404 110.668 46.9157 112.328 46.3287C113.137 46.2339 114.028 46.0507 114.771 46.5014C115.647 47.0337 116.151 48.5151 116.428 49.4593C116.949 51.2318 118.565 56.9688 117.554 58.4378C116.556 59.8873 112.534 60.9073 110.823 61.1771Z" fill="#FF6666"/>
<path d="M149.303 58.1034C149.244 58.1792 149.062 58.3555 148.971 58.3748C148.079 58.5644 145.031 58.2255 143.92 58.1936C141.029 58.1112 137.966 58.1159 135.106 58.511C134.873 51.6589 133.949 44.7177 133.35 37.8757L132.562 28.7523C132.41 26.9751 132.345 25.1466 132.011 23.3951C136.486 22.6851 141.94 22.6829 146.5 22.895C148.381 22.9825 150.5 22.895 152.111 23.278C151.295 30.5925 150.891 38.0201 150.313 45.3625C149.983 49.5547 149.279 53.9113 149.303 58.1034Z" fill="#22C55E"/>
<path d="M139.554 55.3736C139.23 55.2953 138.887 55.1731 138.616 54.9767C137.256 53.9932 137.059 51.8512 136.871 50.3224C136.631 48.3689 135.712 44.2609 137.09 42.7132C138.426 41.2126 142.648 41.7232 144.567 41.7032C145.663 41.8207 147.001 41.9447 147.802 42.7836C148.92 43.9554 148.267 47.4338 148.081 48.9049C147.874 50.5382 147.659 53.9797 146.186 54.9968C144.753 55.9873 141.189 55.6221 139.554 55.3736Z" fill="#4ADE80"/>
<path d="M216.761 232.265C215.013 229.595 212.613 227.1 210.586 224.609C205.223 218.016 199.604 211.523 194.521 204.718C196.581 203.12 198.615 201.324 200.437 199.463C201.839 198.032 203.087 196.421 204.636 195.142C207.607 191.511 210.526 187.851 212.91 183.796C214.26 181.503 215.546 179.2 216.706 176.805C217.064 176.067 218.789 171.813 219.088 171.551C219.187 171.464 219.333 171.451 219.456 171.401C221.703 172.423 224.048 173.261 226.34 174.18C230.982 176.078 235.645 177.921 240.33 179.711C244.281 181.241 248.173 183.074 252.209 184.359C251.37 186.954 244.882 200.082 243.088 202.352C241.138 205.288 239.269 208.359 237.15 211.174C235.292 213.642 233.189 215.918 231.378 218.425C229.793 220.654 218.954 230.919 216.761 232.265Z" fill="#1B1F26"/>
<path d="M206.344 215.146C205.869 215.013 205.344 214.882 204.94 214.59C203.603 213.626 200.865 209.775 199.887 208.282C199.396 207.531 198.773 206.455 199.002 205.533C199.457 203.705 201.792 201.552 203.379 200.604C204.204 200.111 204.953 199.817 205.907 200.046C206.413 200.316 206.904 200.612 207.378 200.934C209.178 202.175 213.813 205.491 214.159 207.733C214.26 208.39 213.942 208.997 213.544 209.498C212.946 210.252 212.119 210.828 211.431 211.498C209.788 213.098 208.854 214.879 206.344 215.146Z" fill="#242A32"/>
<path d="M231.377 218.423L211.992 201.46C209.973 199.706 206.751 196.438 204.635 195.14C207.606 191.509 210.525 187.849 212.909 183.794C216.056 185.907 219.365 187.833 222.602 189.808C227.335 192.649 232.036 195.54 236.706 198.483C238.818 199.788 241.037 200.95 243.087 202.35C241.138 205.286 239.268 208.357 237.149 211.172C235.291 213.64 233.188 215.916 231.377 218.423Z" fill="#EF4444"/>
<path d="M216.854 203.114C216.581 202.992 216.327 202.848 216.081 202.679C214.547 201.626 210.543 197.88 209.627 196.377C209.307 195.853 209.206 195.283 209.098 194.689L209.126 194.618C209.875 192.653 211.608 189.959 213.452 188.89C214.311 188.392 214.999 188.468 215.92 188.742C218.038 189.822 222.675 192.022 224.044 193.809C224.436 194.32 224.507 194.966 224.404 195.587C224.082 197.526 220.847 201.757 219.157 202.851C218.337 203.381 217.785 203.305 216.854 203.114Z" fill="#FF6666"/>
<path d="M243.08 202.35C241.029 200.95 238.811 199.788 236.698 198.484C232.029 195.541 227.327 192.649 222.594 189.809C219.358 187.834 216.049 185.907 212.901 183.794C214.251 181.502 215.538 179.198 216.698 176.803C217.055 176.066 218.781 171.812 219.079 171.55C219.179 171.462 219.325 171.449 219.448 171.399C221.694 172.422 224.04 173.259 226.332 174.179C230.974 176.077 235.637 177.92 240.321 179.709C244.273 181.24 248.164 183.073 252.201 184.358C251.362 186.952 244.874 200.081 243.08 202.35Z" fill="#1B1F26"/>
<path d="M226.419 189.803C224.122 188.834 221.735 187.169 219.693 185.732C218.304 184.754 217.621 183.99 217.33 182.299C217.955 180.414 218.81 177.868 220.279 176.473C220.991 175.798 221.734 175.641 222.69 175.651C224.883 176.023 229.593 177.62 231.387 178.893C232.315 179.552 232.484 180.129 232.667 181.225C231.992 183.364 230.478 186.929 229.022 188.621C228.237 189.532 227.598 189.723 226.419 189.803Z" fill="#242A32"/>
<path d="M29.3136 106.412C31.164 99.9865 33.9947 93.7892 36.7678 87.7212C38.4478 84.5085 40.2517 81.2427 42.2352 78.2063C43.8617 75.7176 45.7725 73.267 47.2257 70.6848C50.7935 66.3359 54.2479 62.0186 58.1554 57.9606C58.8497 57.2426 59.6005 56.2219 60.4247 55.6797C62.6476 58.0933 65.0114 60.3759 67.2923 62.7356C70.0961 65.6363 72.8313 68.6043 75.6563 71.4837C77.777 73.6451 83.5147 78.9331 84.7918 81.2622C83.6059 83.0498 81.7819 84.5999 80.329 86.1925C78.7345 87.9402 77.273 89.8205 75.8088 91.6769C73.0467 95.4062 70.4541 99.5358 68.4117 103.706C67.8034 105.489 66.8211 107.219 66.0885 108.964C65.0266 111.493 64.149 114.111 63.2324 116.697C60.3468 115.576 57.2183 114.803 54.2471 113.92L41.4949 110.028L33.8763 107.684C32.4034 107.229 30.8393 106.629 29.3136 106.412Z" fill="#1B1F26"/>
<path d="M74.4292 86.9395C71.4865 86.1053 68.2827 83.2709 65.8294 81.4558C65.6624 81.1145 65.4776 80.7611 65.3749 80.3945C65.1262 79.5054 65.5322 78.5453 65.957 77.7785C67.1278 75.6745 69.7905 72.5146 72.1729 71.8644C72.7626 71.8721 73.1751 71.9437 73.6886 72.2511C75.3849 73.2658 80.0847 78.4961 80.4591 80.3125C80.6243 81.1146 80.2607 81.9881 79.8085 82.6355C78.5368 84.4569 76.6739 86.5439 74.4292 86.9395Z" fill="#242A32"/>
<path d="M68.4111 103.708C62.7253 100.447 56.6897 97.6688 50.8256 94.7363C46.1803 92.413 41.5222 89.7955 36.7672 87.7233C38.4471 84.5106 40.251 81.2448 42.2345 78.2084C43.8611 75.7197 45.7719 73.2691 47.225 70.6869C48.152 71.5396 49.2754 72.268 50.2893 73.0246L57.703 78.4622L67.8465 85.9386C70.463 87.8813 73.0642 89.9206 75.8081 91.679C73.046 95.4083 70.4534 99.5379 68.4111 103.708Z" fill="#EF4444"/>
<path d="M65.486 99.0732C63.8844 98.6069 58.9941 96.5464 57.6343 95.639C56.88 95.135 56.2513 94.3968 56.0856 93.4842C55.6996 91.3576 58.9945 86.9084 60.2628 85.2236C61.007 84.8887 61.7218 84.7198 62.5125 84.5546C64.023 84.9972 69.0544 88.9243 70.2012 90.1685C70.8072 90.8262 71.2512 91.5508 71.1945 92.4687C71.0769 94.3764 69.2202 97.2058 67.75 98.4328C67.0445 99.0216 66.3849 99.1659 65.486 99.0732Z" fill="#FF6666"/>
<path d="M29.3131 106.413C31.1635 99.9866 33.9942 93.7893 36.7674 87.7213C41.5223 89.7934 46.1805 92.411 50.8258 94.7343C56.6899 97.6667 62.7255 100.445 68.4113 103.706C67.8029 105.489 66.8206 107.219 66.088 108.964C65.0262 111.493 64.1485 114.111 63.2319 116.697C60.3463 115.576 57.2178 114.803 54.2466 113.92L41.4944 110.028L33.8758 107.684C32.4029 107.229 30.8388 106.629 29.3131 106.413Z" fill="#1B1F26"/>
<path d="M52.863 110.969C52.016 110.746 51.013 110.55 50.2396 110.137C49.7601 109.882 49.4783 109.415 49.3238 108.908C48.6789 106.811 50.464 102.968 51.4496 101.026C52.1955 99.5508 52.8752 99.3107 54.3747 98.8248C56.5578 99.4384 58.3098 100.721 60.3411 101.674C61.6067 102.282 63.1561 102.882 63.8242 104.212C64.3359 105.231 64.0531 106.445 63.7153 107.47C62.9858 109.683 62.1905 111.676 59.9976 112.771C57.6079 112.392 55.2059 111.583 52.863 110.969Z" fill="#242A32"/>
<path d="M142.277 35.4867C141.71 35.4867 141.196 35.3334 140.736 35.0267C140.275 34.7201 139.911 34.2934 139.643 33.7468C139.382 33.1934 139.25 32.5568 139.249 31.8368C139.247 31.1101 139.376 30.4768 139.635 29.9368C139.894 29.3901 140.249 28.9668 140.702 28.6668C141.155 28.3601 141.668 28.2068 142.241 28.2068C142.821 28.2068 143.338 28.3601 143.792 28.6668C144.246 28.9668 144.604 29.3901 144.865 29.9368C145.133 30.4834 145.267 31.1201 145.269 31.8468C145.27 32.5734 145.138 33.2101 144.873 33.7568C144.614 34.3034 144.258 34.7301 143.806 35.0367C143.36 35.3367 142.85 35.4867 142.277 35.4867ZM142.264 34.0968C142.557 34.0968 142.81 34.0134 143.023 33.8468C143.236 33.6734 143.399 33.4201 143.512 33.0868C143.631 32.7468 143.69 32.3334 143.689 31.8468C143.688 31.3534 143.627 30.9401 143.506 30.6068C143.392 30.2734 143.228 30.0234 143.015 29.8568C142.801 29.6834 142.544 29.5968 142.244 29.5968C141.957 29.5968 141.704 29.6801 141.484 29.8468C141.272 30.0134 141.109 30.2634 140.996 30.5968C140.884 30.9301 140.828 31.3434 140.829 31.8368C140.83 32.3301 140.887 32.7434 141.001 33.0768C141.116 33.4101 141.279 33.6634 141.493 33.8368C141.714 34.0101 141.97 34.0968 142.264 34.0968Z" fill="#FDFDFD"/>
<path d="M156.424 36.6504C155.944 36.5705 155.517 36.415 155.143 36.1838C154.77 35.946 154.471 35.6463 154.247 35.2846L155.408 34.4539C155.503 34.6589 155.659 34.8403 155.876 34.9981C156.101 35.1504 156.348 35.249 156.618 35.2938C156.861 35.3343 157.078 35.3266 157.27 35.2707C157.462 35.2147 157.62 35.116 157.745 34.9746C157.876 34.8342 157.96 34.6555 157.996 34.4385C158.031 34.2214 158.009 34.0285 157.929 33.8597C157.857 33.6854 157.729 33.5391 157.546 33.4208C157.369 33.3035 157.146 33.2225 156.876 33.1776C156.751 33.1568 156.618 33.1448 156.477 33.1415C156.343 33.1328 156.228 33.1372 156.13 33.1548L156.953 32.4097C157.145 32.3877 157.327 32.374 157.497 32.3685C157.674 32.3574 157.835 32.364 157.98 32.3881C158.335 32.4472 158.64 32.5858 158.894 32.8038C159.15 33.0153 159.334 33.2893 159.448 33.6258C159.569 33.9568 159.594 34.3328 159.525 34.7538C159.449 35.2142 159.266 35.6028 158.977 35.9197C158.695 36.2377 158.333 36.4614 157.893 36.5909C157.459 36.7214 156.97 36.7413 156.424 36.6504ZM156.13 33.1548L156.272 32.2964L158.298 30.5859L160.036 30.8649L157.937 32.5837L156.13 33.1548ZM155.473 30.5718L155.689 29.2596L160.178 30.0066L160.036 30.8649L158.747 31.1168L155.473 30.5718ZM159.856 36.2181L162.986 33.9005C163.178 33.7634 163.334 33.634 163.456 33.5123C163.577 33.3906 163.671 33.2744 163.736 33.1637C163.803 33.0464 163.847 32.9252 163.867 32.8002C163.912 32.5306 163.858 32.3053 163.705 32.1245C163.561 31.9382 163.347 31.8215 163.064 31.7744C162.788 31.7285 162.525 31.7625 162.277 31.8766C162.036 31.9852 161.786 32.1902 161.526 32.4917L160.639 31.4215C160.992 31.0005 161.402 30.7072 161.869 30.5415C162.336 30.3759 162.845 30.339 163.398 30.431C163.878 30.5109 164.277 30.6686 164.596 30.9042C164.922 31.1409 165.153 31.4396 165.29 31.8002C165.432 32.1619 165.468 32.5631 165.395 33.0037C165.349 33.28 165.27 33.5305 165.159 33.7552C165.049 33.9734 164.892 34.1839 164.69 34.3868C164.495 34.5841 164.24 34.7952 163.926 35.02L161.767 36.5563L159.856 36.2181ZM159.713 37.0863L159.856 36.2181L161.243 35.9826L164.942 36.5982L164.724 37.9203L159.713 37.0863Z" fill="#FDFDFD"/>
<path d="M174.453 40.525L176.945 33.9193L178.405 34.4698L175.913 41.0754L174.453 40.525ZM175.203 34.6838L175.672 33.4394L178.311 34.4345L177.842 35.6789L175.203 34.6838ZM178.886 42.3143C178.431 42.1426 178.033 41.9035 177.692 41.597C177.361 41.2866 177.12 40.9323 176.971 40.5341L178.282 39.949C178.335 40.1684 178.452 40.3765 178.634 40.5735C178.825 40.7666 179.055 40.9137 179.323 41.0148C179.56 41.1042 179.781 41.1413 179.986 41.1261C180.194 41.1046 180.377 41.0348 180.536 40.9165C180.697 40.7919 180.817 40.6236 180.897 40.4115C180.979 40.1932 181 39.9873 180.959 39.7937C180.918 39.6001 180.823 39.4287 180.672 39.2794C180.53 39.1262 180.347 39.0072 180.123 38.9225C179.898 38.8378 179.681 38.7914 179.47 38.7832C179.262 38.7688 179.057 38.7914 178.857 38.8511L179.331 37.9613C179.517 37.9032 179.688 37.8645 179.845 37.8453C180.004 37.8198 180.169 37.8178 180.339 37.8392C180.509 37.8605 180.7 37.9112 180.912 37.9912C181.399 38.1747 181.77 38.4286 182.025 38.7529C182.287 39.0795 182.439 39.4399 182.483 39.834C182.533 40.2304 182.483 40.6283 182.332 41.0275C182.167 41.4641 181.911 41.8128 181.563 42.0735C181.222 42.3366 180.821 42.4919 180.362 42.5394C179.902 42.587 179.41 42.5119 178.886 42.3143ZM178.857 38.8511L178.443 38.0217L179.929 35.0447L181.258 35.5458L179.754 38.4841L178.857 38.8511ZM179.656 36.3632L179.929 35.0447L183.644 36.4456L183.174 37.69L179.656 36.3632Z" fill="#FDFDFD"/>
<path d="M190.178 48.2977L193.558 42.0992L194.928 42.8447L191.549 49.0433L190.178 48.2977ZM191.727 42.617L192.363 41.4493L194.84 42.7969L194.204 43.9646L191.727 42.617ZM193.103 49.8888L196.532 48.2367L197.061 48.4788C196.911 48.572 196.761 48.6458 196.61 48.7002C196.468 48.7519 196.31 48.7688 196.138 48.7508C195.974 48.7302 195.779 48.6578 195.55 48.5336C195.175 48.3297 194.878 48.0539 194.657 47.7063C194.446 47.356 194.329 46.9776 194.308 46.5713C194.296 46.1623 194.396 45.7618 194.61 45.3696C194.833 44.9599 195.137 44.6469 195.521 44.4306C195.904 44.2143 196.322 44.1036 196.772 44.0984C197.223 44.0932 197.665 44.2085 198.099 44.4443C198.532 44.68 198.869 44.9885 199.109 45.3696C199.352 45.7449 199.484 46.1506 199.505 46.5867C199.534 47.0201 199.437 47.4417 199.214 47.8514C198.927 48.3782 198.456 48.8091 197.803 49.1443L194.666 50.7394L193.103 49.8888ZM196.356 47.6401C196.538 47.7389 196.726 47.7842 196.92 47.776C197.114 47.7679 197.292 47.713 197.454 47.6112C197.619 47.5037 197.753 47.3562 197.855 47.1689C197.96 46.9757 198.013 46.7808 198.014 46.584C198.015 46.3872 197.965 46.208 197.863 46.0464C197.764 45.879 197.624 45.7459 197.443 45.6471C197.255 45.5452 197.065 45.4983 196.87 45.5064C196.685 45.5119 196.507 45.5668 196.336 45.6712C196.171 45.7788 196.036 45.9292 195.931 46.1223C195.829 46.3096 195.777 46.5017 195.776 46.6985C195.784 46.8926 195.838 47.0734 195.936 47.2408C196.035 47.4083 196.175 47.5414 196.356 47.6401Z" fill="#FDFDFD"/>
<path d="M206.745 55.3187L211.499 53.3002L212.805 54.4037L208.013 56.3899L206.745 55.3187ZM206.176 55.9898L206.745 55.3187L207.433 55.3111L211.36 58.6281L210.499 59.6424L206.176 55.9898ZM207.704 59.3361L210.531 56.0034L211.707 56.9972L208.88 60.3299L207.704 59.3361Z" fill="#FDFDFD"/>
<path d="M217.907 67.098L221.806 67.2593C222.041 67.2729 222.245 67.2705 222.416 67.2521C222.587 67.2337 222.733 67.202 222.854 67.1571C222.98 67.1078 223.09 67.0411 223.185 66.9569C223.389 66.7754 223.489 66.5666 223.483 66.3305C223.487 66.0949 223.394 65.8702 223.203 65.6564C223.017 65.4476 222.79 65.3096 222.525 65.2424C222.269 65.1757 221.945 65.1782 221.553 65.2499L221.534 63.8623C222.074 63.7568 222.578 63.7859 223.046 63.9496C223.514 64.1134 223.935 64.4041 224.308 64.8218C224.632 65.1848 224.845 65.5578 224.945 65.9409C225.051 66.329 225.043 66.7058 224.923 67.0714C224.807 67.442 224.582 67.7756 224.248 68.0723C224.039 68.2583 223.82 68.4037 223.592 68.5084C223.368 68.6087 223.114 68.6742 222.829 68.7048C222.552 68.7361 222.221 68.7405 221.835 68.7182L219.185 68.5582L217.907 67.098ZM217.25 67.6825L217.907 67.098L219.137 67.7844L221.635 70.5813L220.633 71.4713L217.25 67.6825ZM221.902 72.8918L227.18 68.2023L228.219 69.3658L222.941 74.0553L221.902 72.8918ZM225.28 68.0714L226.274 67.188L228.152 69.2912L227.158 70.1747L225.28 68.0714Z" fill="#FDFDFD"/>
<path d="M230.651 82.8239L234.462 83.6652C234.692 83.7198 234.892 83.753 235.064 83.7649C235.236 83.7768 235.386 83.7712 235.512 83.7481C235.645 83.7216 235.765 83.6752 235.873 83.6089C236.106 83.466 236.241 83.2778 236.277 83.0445C236.322 82.8134 236.269 82.5758 236.119 82.3319C235.971 82.0937 235.773 81.9183 235.523 81.8056C235.283 81.6952 234.963 81.6409 234.565 81.6429L234.789 80.2737C235.339 80.2643 235.831 80.3812 236.263 80.6244C236.695 80.8676 237.058 81.2274 237.353 81.7038C237.608 82.1179 237.752 82.5223 237.785 82.917C237.82 83.3175 237.747 83.6871 237.564 84.0259C237.385 84.3704 237.106 84.6594 236.725 84.893C236.486 85.0394 236.245 85.1442 236.002 85.2074C235.765 85.267 235.503 85.2869 235.216 85.2672C234.939 85.2496 234.612 85.196 234.236 85.1064L231.654 84.4849L230.651 82.8239ZM229.901 83.2841L230.651 82.8239L231.742 83.7148L233.713 86.9053L232.571 87.6061L229.901 83.2841Z" fill="#FDFDFD"/>
<path d="M238.552 95.8373L242.171 97.2971C242.389 97.3889 242.581 97.4549 242.749 97.495C242.916 97.5351 243.065 97.5543 243.193 97.5525C243.328 97.5483 243.455 97.5224 243.572 97.4749C243.826 97.3724 243.989 97.2091 244.063 96.985C244.146 96.7645 244.134 96.5216 244.025 96.2561C243.92 95.9969 243.753 95.791 243.525 95.6386C243.306 95.4899 243 95.3836 242.607 95.3196L243.054 94.0063C243.598 94.0881 244.064 94.2847 244.45 94.596C244.836 94.9072 245.135 95.3221 245.346 95.8407C245.53 96.2913 245.605 96.7139 245.572 97.1086C245.541 97.5094 245.407 97.8618 245.171 98.1658C244.938 98.4759 244.614 98.7147 244.2 98.8821C243.94 98.9871 243.686 99.0506 243.435 99.0727C243.191 99.0922 242.93 99.0686 242.65 99.0017C242.38 98.9385 242.066 98.8316 241.71 98.681L239.266 97.6412L238.552 95.8373ZM237.736 96.1672L238.552 95.8373L239.481 96.8964L240.897 100.369L239.655 100.871L237.736 96.1672ZM240.642 103.583C240.458 103.133 240.363 102.678 240.356 102.221C240.358 101.767 240.455 101.351 240.646 100.971L241.967 101.537C241.842 101.724 241.769 101.952 241.749 102.219C241.737 102.49 241.785 102.758 241.893 103.023C241.989 103.258 242.112 103.445 242.263 103.586C242.42 103.724 242.596 103.811 242.791 103.847C242.992 103.881 243.197 103.855 243.407 103.77C243.624 103.683 243.789 103.558 243.903 103.397C244.017 103.236 244.078 103.05 244.085 102.838C244.102 102.63 244.064 102.415 243.974 102.193C243.883 101.971 243.769 101.779 243.632 101.619C243.5 101.457 243.345 101.322 243.164 101.215L244.141 100.961C244.31 101.057 244.455 101.157 244.576 101.259C244.703 101.359 244.816 101.478 244.916 101.618C245.016 101.757 245.109 101.932 245.195 102.141C245.391 102.623 245.457 103.067 245.393 103.474C245.331 103.888 245.17 104.244 244.91 104.543C244.653 104.848 244.327 105.081 243.932 105.241C243.499 105.416 243.069 105.464 242.64 105.385C242.215 105.313 241.828 105.124 241.481 104.819C241.133 104.514 240.853 104.102 240.642 103.583ZM243.164 101.215L243.492 100.349L246.689 99.4232L247.225 100.738L244.044 101.625L243.164 101.215ZM245.535 100.116L246.689 99.4232L248.188 103.099L246.955 103.598L245.535 100.116Z" fill="#FDFDFD"/>
<path d="M244.298 115.064L251.183 113.504L251.532 115.025L244.646 116.584L244.298 115.064ZM249.582 112.472L250.879 112.179L251.51 114.927L250.213 115.221L249.582 112.472ZM245.053 118.358L251.617 119.332L251.959 120.823L245.415 119.937L245.053 118.358ZM250.432 116.176L251.729 115.882L252.818 120.628L251.959 120.823L251.404 120.415L250.432 116.176Z" fill="#FDFDFD"/>
<path d="M246.077 132.752C246.056 132.266 246.119 131.816 246.267 131.403C246.422 130.989 246.654 130.636 246.961 130.342L248.015 131.309C247.834 131.443 247.689 131.633 247.58 131.877C247.477 132.129 247.432 132.391 247.445 132.664C247.456 132.91 247.508 133.122 247.603 133.298C247.698 133.474 247.827 133.609 247.991 133.702C248.156 133.801 248.348 133.847 248.568 133.837C248.788 133.828 248.972 133.767 249.12 133.654C249.276 133.547 249.392 133.392 249.47 133.189C249.548 132.992 249.581 132.757 249.569 132.484C249.563 132.357 249.547 132.224 249.521 132.085C249.502 131.953 249.473 131.841 249.436 131.749L250.336 132.401C250.397 132.585 250.449 132.76 250.489 132.925C250.537 133.097 250.564 133.256 250.571 133.402C250.587 133.762 250.514 134.088 250.354 134.382C250.2 134.676 249.97 134.912 249.665 135.092C249.366 135.278 249.004 135.38 248.577 135.398C248.111 135.418 247.693 135.319 247.323 135.101C246.953 134.89 246.659 134.582 246.441 134.178C246.223 133.78 246.102 133.305 246.077 132.752ZM249.436 131.749L250.305 131.712L252.4 133.345L252.488 135.102L250.37 133.401L249.436 131.749ZM251.826 130.576L253.155 130.52L253.357 135.065L252.488 135.102L251.974 133.893L251.826 130.576ZM248.781 135.926L253.49 138.048L253.566 139.757L248.855 137.584L248.781 135.926ZM247.902 135.963L248.781 135.926L249.254 136.427L249.483 141.561L248.154 141.618L247.902 135.963ZM246.481 139.357L250.848 139.171L250.916 140.71L246.55 140.895L246.481 139.357Z" fill="#FDFDFD"/>
<path d="M245.627 154.351C245.716 153.866 245.905 153.446 246.193 153.093C246.48 152.746 246.825 152.491 247.228 152.328C247.636 152.172 248.066 152.136 248.519 152.22C249.109 152.328 249.667 152.645 250.195 153.169L252.678 155.65L252.359 157.391L249.729 154.659L249.786 154.07C249.926 154.191 250.043 154.311 250.137 154.429C250.236 154.556 250.3 154.704 250.33 154.872C250.367 155.041 250.363 155.247 250.319 155.49C250.239 155.923 250.067 156.291 249.801 156.594C249.541 156.906 249.217 157.134 248.832 157.28C248.452 157.427 248.04 157.46 247.594 157.377C247.141 157.294 246.749 157.103 246.418 156.805C246.093 156.508 245.857 156.146 245.712 155.719C245.566 155.292 245.538 154.836 245.627 154.351ZM246.974 154.599C246.937 154.803 246.953 154.995 247.021 155.177C247.089 155.359 247.2 155.512 247.354 155.635C247.507 155.758 247.689 155.839 247.899 155.878C248.115 155.918 248.314 155.907 248.495 155.845C248.682 155.785 248.836 155.681 248.958 155.534C249.087 155.388 249.17 155.214 249.207 155.011C249.245 154.801 249.23 154.605 249.162 154.423C249.099 154.248 248.991 154.1 248.837 153.976C248.69 153.854 248.508 153.774 248.292 153.734C248.082 153.695 247.884 153.706 247.696 153.766C247.509 153.827 247.352 153.926 247.225 154.066C247.096 154.212 247.013 154.389 246.974 154.599Z" fill="#FDFDFD"/>
<path d="M244.192 165.977L246.171 169.334C246.288 169.539 246.4 169.708 246.509 169.842C246.617 169.976 246.723 170.081 246.826 170.158C246.936 170.236 247.052 170.293 247.174 170.326C247.438 170.399 247.667 170.369 247.863 170.236C248.063 170.112 248.201 169.911 248.277 169.635C248.351 169.365 248.345 169.1 248.257 168.841C248.174 168.59 247.996 168.319 247.723 168.03L248.879 167.259C249.261 167.655 249.51 168.094 249.627 168.575C249.743 169.057 249.727 169.568 249.578 170.108C249.449 170.577 249.251 170.958 248.984 171.251C248.714 171.55 248.394 171.748 248.021 171.846C247.647 171.95 247.244 171.943 246.813 171.824C246.544 171.75 246.303 171.645 246.091 171.511C245.885 171.378 245.692 171.2 245.511 170.978C245.335 170.763 245.152 170.488 244.961 170.152L243.657 167.842L244.192 165.977ZM243.343 165.743L244.192 165.977L244.282 167.381L243.287 170.997L241.995 170.64L243.343 165.743ZM241.64 171.93L246.96 175.888L246.554 177.363L241.21 173.492L241.64 171.93ZM247.413 172.548L248.695 172.901L247.402 177.597L246.554 177.363L246.258 176.742L247.413 172.548Z" fill="#FDFDFD"/>
<path d="M237.536 183.811L243.711 187.233L242.953 188.597L236.778 185.174L237.536 183.811ZM243.208 185.399L244.371 186.044L243.002 188.509L241.838 187.865L243.208 185.399ZM235.124 187.927C235.36 187.501 235.65 187.151 235.993 186.876C236.342 186.605 236.724 186.424 237.14 186.335L237.533 187.707C237.308 187.727 237.085 187.813 236.864 187.965C236.645 188.126 236.469 188.325 236.336 188.564C236.217 188.78 236.151 188.988 236.139 189.187C236.128 189.386 236.168 189.568 236.259 189.733C236.347 189.904 236.487 190.043 236.68 190.15C236.872 190.256 237.061 190.3 237.247 190.281C237.436 190.271 237.617 190.2 237.789 190.067C237.959 189.94 238.11 189.757 238.243 189.518C238.305 189.408 238.361 189.286 238.411 189.154C238.464 189.031 238.499 188.921 238.515 188.823L238.941 189.848C238.897 190.037 238.849 190.212 238.797 190.374C238.748 190.545 238.688 190.695 238.617 190.823C238.442 191.138 238.209 191.378 237.918 191.545C237.633 191.715 237.313 191.796 236.958 191.79C236.606 191.793 236.243 191.691 235.87 191.484C235.462 191.258 235.157 190.956 234.955 190.577C234.75 190.205 234.661 189.789 234.687 189.331C234.709 188.878 234.855 188.41 235.124 187.927ZM238.515 188.823L239.276 189.245L240.207 191.727L239.362 193.271L238.447 190.717L238.515 188.823ZM241.169 189.07L242.332 189.715L240.123 193.693L239.362 193.271L239.557 191.973L241.169 189.07Z" fill="#FDFDFD"/>
<path d="M228.081 199.657C228.361 199.259 228.687 198.942 229.057 198.705C229.433 198.472 229.833 198.333 230.256 198.288L230.501 199.694C230.275 199.69 230.044 199.752 229.808 199.879C229.573 200.016 229.377 200.196 229.22 200.42C229.078 200.621 228.991 200.821 228.958 201.018C228.925 201.215 228.946 201.4 229.019 201.574C229.089 201.753 229.214 201.905 229.394 202.032C229.574 202.158 229.757 202.222 229.944 202.223C230.133 202.233 230.32 202.181 230.506 202.067C230.688 201.959 230.858 201.793 231.015 201.569C231.088 201.466 231.157 201.351 231.221 201.225C231.287 201.108 231.333 201.002 231.359 200.907L231.675 201.971C231.611 202.154 231.545 202.323 231.476 202.479C231.409 202.643 231.333 202.786 231.249 202.906C231.042 203.2 230.785 203.415 230.478 203.55C230.176 203.688 229.849 203.736 229.497 203.692C229.146 203.658 228.796 203.518 228.447 203.273C228.065 203.005 227.793 202.672 227.633 202.275C227.469 201.883 227.424 201.46 227.498 201.007C227.568 200.56 227.763 200.11 228.081 199.657ZM231.359 200.907L232.072 201.406L232.735 203.973L231.731 205.418L231.091 202.783L231.359 200.907ZM233.973 201.433L235.062 202.197L232.443 205.918L231.731 205.418L232.062 204.148L233.973 201.433ZM224.659 204.52C224.943 204.116 225.29 203.814 225.7 203.613C226.107 203.418 226.527 203.33 226.962 203.35C227.398 203.379 227.804 203.526 228.181 203.79C228.672 204.135 229.048 204.655 229.308 205.35L230.529 208.637L229.51 210.085L228.26 206.509L228.559 205.998C228.636 206.166 228.692 206.323 228.728 206.47C228.765 206.626 228.761 206.787 228.719 206.952C228.681 207.121 228.591 207.307 228.449 207.509C228.196 207.868 227.885 208.131 227.516 208.296C227.149 208.47 226.76 208.542 226.348 208.514C225.941 208.489 225.552 208.347 225.181 208.086C224.805 207.822 224.528 207.486 224.351 207.077C224.18 206.671 224.117 206.245 224.163 205.797C224.21 205.349 224.375 204.923 224.659 204.52ZM225.78 205.306C225.661 205.475 225.595 205.657 225.581 205.851C225.567 206.044 225.604 206.229 225.692 206.405C225.78 206.581 225.912 206.73 226.086 206.853C226.266 206.979 226.451 207.052 226.642 207.071C226.837 207.094 227.021 207.065 227.194 206.982C227.371 206.903 227.52 206.779 227.639 206.61C227.761 206.436 227.83 206.252 227.844 206.058C227.86 205.873 227.823 205.693 227.735 205.517C227.653 205.345 227.521 205.196 227.341 205.07C227.166 204.947 226.981 204.874 226.786 204.851C226.59 204.828 226.405 204.853 226.231 204.927C226.053 205.005 225.903 205.132 225.78 205.306Z" fill="#FDFDFD"/>
<path d="M216.796 213.62L221.676 218.721L220.547 219.797L215.666 214.696L216.796 213.62ZM221.742 216.823L222.661 217.784L220.619 219.728L219.7 218.767L221.742 216.823ZM214.044 216.24L218.925 221.341L217.795 222.417L212.914 217.316L214.044 216.24ZM218.99 219.443L219.91 220.404L217.868 222.348L216.948 221.387L218.99 219.443Z" fill="#FDFDFD"/>
<path d="M203.85 225.153C204.263 224.896 204.686 224.73 205.12 224.655C205.557 224.587 205.98 224.614 206.387 224.736L206.068 226.126C205.862 226.035 205.624 226.003 205.357 226.028C205.087 226.063 204.837 226.153 204.605 226.297C204.396 226.428 204.238 226.578 204.131 226.746C204.025 226.915 203.972 227.094 203.972 227.282C203.967 227.474 204.023 227.663 204.14 227.85C204.257 228.036 204.401 228.166 204.573 228.239C204.743 228.321 204.936 228.346 205.152 228.314C205.362 228.285 205.583 228.198 205.815 228.053C205.922 227.986 206.03 227.907 206.138 227.816C206.244 227.734 206.328 227.654 206.389 227.576L206.267 228.678C206.137 228.822 206.01 228.953 205.887 229.069C205.761 229.195 205.636 229.297 205.512 229.374C205.206 229.565 204.886 229.663 204.55 229.668C204.219 229.679 203.899 229.596 203.591 229.419C203.28 229.251 203.012 228.986 202.785 228.625C202.536 228.23 202.415 227.818 202.422 227.39C202.422 226.965 202.545 226.558 202.789 226.17C203.027 225.785 203.381 225.447 203.85 225.153ZM206.389 227.576L206.852 228.313L206.469 230.934L204.981 231.875L205.414 229.2L206.389 227.576ZM208.595 229.075L209.303 230.201L205.444 232.611L204.981 231.875L205.78 230.834L208.595 229.075ZM198.934 228.224C199.415 227.923 199.932 227.781 200.485 227.797C201.039 227.813 201.574 227.982 202.091 228.304C202.606 228.634 203.055 229.104 203.438 229.714C203.825 230.329 204.052 230.934 204.119 231.529C204.189 232.13 204.112 232.677 203.887 233.171C203.666 233.671 203.312 234.073 202.826 234.376C202.334 234.684 201.814 234.827 201.266 234.808C200.722 234.794 200.194 234.625 199.683 234.3C199.166 233.978 198.714 233.51 198.327 232.894C197.94 232.279 197.715 231.67 197.65 231.066C197.579 230.465 197.655 229.915 197.876 229.415C198.095 228.924 198.448 228.527 198.934 228.224ZM199.683 229.395C199.434 229.551 199.263 229.755 199.171 230.009C199.082 230.269 199.079 230.57 199.16 230.912C199.239 231.264 199.408 231.645 199.667 232.057C199.93 232.475 200.201 232.793 200.48 233.012C200.753 233.234 201.025 233.359 201.295 233.387C201.568 233.421 201.832 233.358 202.086 233.2C202.329 233.048 202.5 232.843 202.598 232.585C202.69 232.331 202.695 232.033 202.614 231.691C202.533 231.349 202.361 230.969 202.098 230.551C201.836 230.133 201.568 229.813 201.294 229.591C201.021 229.369 200.747 229.241 200.474 229.207C200.195 229.177 199.931 229.24 199.683 229.395Z" fill="#FDFDFD"/>
<path d="M185.903 236.302C186.371 236.108 186.815 236.022 187.236 236.043C187.65 236.067 188.016 236.183 188.334 236.39C188.645 236.601 188.878 236.891 189.032 237.26C189.16 237.568 189.217 237.869 189.202 238.163C189.181 238.46 189.098 238.736 188.951 238.992C188.799 239.249 188.591 239.469 188.327 239.65L188.231 239.343C188.501 239.297 188.753 239.312 188.987 239.388C189.223 239.471 189.433 239.601 189.615 239.778C189.797 239.955 189.937 240.161 190.034 240.395C190.178 240.739 190.218 241.079 190.156 241.415C190.09 241.76 189.932 242.074 189.682 242.358C189.432 242.641 189.106 242.866 188.706 243.031C188.299 243.199 187.91 243.27 187.538 243.243C187.159 243.219 186.827 243.107 186.542 242.908C186.253 242.717 186.037 242.449 185.893 242.105C185.796 241.871 185.749 241.627 185.751 241.374C185.748 241.123 185.8 240.885 185.909 240.659C186.02 240.44 186.187 240.252 186.41 240.095L186.57 240.375C186.249 240.436 185.946 240.428 185.661 240.351C185.37 240.276 185.115 240.14 184.895 239.942C184.675 239.744 184.502 239.491 184.373 239.184C184.22 238.815 184.178 238.446 184.248 238.078C184.319 237.71 184.495 237.37 184.777 237.059C185.053 236.75 185.428 236.498 185.903 236.302ZM186.418 237.539C186.233 237.615 186.085 237.719 185.974 237.852C185.866 237.99 185.8 238.144 185.776 238.312C185.746 238.483 185.766 238.652 185.835 238.818C185.907 238.99 186.013 239.123 186.153 239.217C186.289 239.319 186.444 239.378 186.616 239.393C186.791 239.415 186.971 239.387 187.156 239.311C187.341 239.235 187.488 239.127 187.596 238.989C187.707 238.856 187.774 238.706 187.798 238.537C187.824 238.375 187.802 238.208 187.73 238.036C187.661 237.869 187.558 237.735 187.421 237.633C187.285 237.531 187.129 237.469 186.954 237.447C186.782 237.432 186.603 237.462 186.418 237.539ZM187.595 240.363C187.379 240.453 187.232 240.593 187.152 240.784C187.07 240.984 187.072 241.189 187.159 241.398C187.249 241.613 187.393 241.76 187.591 241.836C187.785 241.922 187.99 241.92 188.206 241.831C188.416 241.745 188.563 241.604 188.648 241.411C188.734 241.217 188.731 241.012 188.642 240.797C188.555 240.587 188.411 240.441 188.21 240.358C188.009 240.275 187.804 240.277 187.595 240.363Z" fill="#FDFDFD"/>
<path d="M174.431 240.739L172.573 244.157C172.457 244.362 172.37 244.545 172.311 244.707C172.252 244.868 172.216 245.013 172.204 245.141C172.193 245.275 172.204 245.403 172.239 245.525C172.312 245.789 172.456 245.97 172.671 246.07C172.881 246.178 173.124 246.194 173.401 246.117C173.671 246.043 173.894 245.901 174.071 245.693C174.244 245.493 174.384 245.202 174.492 244.82L175.749 245.417C175.606 245.947 175.358 246.386 175.005 246.732C174.652 247.079 174.206 247.327 173.666 247.476C173.197 247.605 172.768 247.63 172.379 247.551C171.983 247.474 171.648 247.3 171.372 247.031C171.089 246.763 170.888 246.414 170.768 245.984C170.692 245.714 170.658 245.454 170.664 245.203C170.672 244.959 170.725 244.702 170.822 244.433C170.916 244.172 171.057 243.874 171.247 243.538L172.556 241.236L174.431 240.739ZM174.195 239.891L174.431 240.739L173.273 241.536L169.659 242.535L169.298 241.244L174.195 239.891ZM167.095 241.738C167.564 241.609 168.017 241.57 168.454 241.622C168.893 241.681 169.29 241.827 169.646 242.061L168.944 243.302C168.772 243.156 168.554 243.058 168.29 243.006C168.022 242.962 167.756 242.977 167.493 243.05C167.255 243.116 167.061 243.214 166.911 243.346C166.761 243.477 166.659 243.633 166.606 243.814C166.546 243.996 166.546 244.193 166.605 244.405C166.664 244.617 166.766 244.783 166.91 244.902C167.049 245.03 167.227 245.108 167.443 245.139C167.653 245.171 167.889 245.15 168.153 245.077C168.275 245.044 168.401 244.998 168.53 244.942C168.655 244.894 168.758 244.841 168.839 244.784L168.408 245.806C168.243 245.907 168.084 245.996 167.932 246.072C167.776 246.157 167.627 246.219 167.486 246.258C167.139 246.354 166.804 246.356 166.481 246.266C166.16 246.181 165.877 246.011 165.632 245.753C165.382 245.504 165.2 245.174 165.085 244.763C164.96 244.314 164.961 243.884 165.089 243.476C165.21 243.068 165.444 242.714 165.788 242.411C166.126 242.11 166.562 241.886 167.095 241.738ZM168.839 244.784L169.073 245.622L167.959 248.025L166.265 248.504L167.442 246.062L168.839 244.784ZM170.527 246.849L170.885 248.13L166.499 249.342L166.265 248.504L167.327 247.733L170.527 246.849Z" fill="#FDFDFD"/>
<path d="M154.62 244.126L155.152 251.166L153.596 251.28L153.064 244.24L154.62 244.126ZM156.408 249.74L156.508 251.066L153.695 251.273L153.595 249.946L156.408 249.74ZM149.665 244.379C150.23 244.337 150.754 244.453 151.236 244.725C151.718 244.997 152.112 245.396 152.419 245.922C152.72 246.454 152.898 247.08 152.952 247.798C153.007 248.522 152.925 249.163 152.706 249.721C152.488 250.285 152.164 250.733 151.735 251.065C151.306 251.404 150.806 251.595 150.234 251.637C149.655 251.679 149.128 251.564 148.653 251.291C148.178 251.025 147.791 250.629 147.49 250.103C147.183 249.577 147.002 248.952 146.948 248.228C146.893 247.503 146.978 246.859 147.203 246.294C147.421 245.73 147.744 245.278 148.173 244.939C148.596 244.608 149.093 244.421 149.665 244.379ZM149.78 245.764C149.487 245.786 149.241 245.887 149.041 246.069C148.841 246.257 148.697 246.522 148.609 246.863C148.515 247.21 148.487 247.627 148.523 248.112C148.56 248.604 148.651 249.012 148.796 249.336C148.934 249.66 149.116 249.897 149.341 250.048C149.567 250.205 149.83 250.273 150.129 250.251C150.415 250.23 150.661 250.128 150.868 249.946C151.068 249.764 151.212 249.503 151.3 249.162C151.388 248.821 151.414 248.405 151.376 247.913C151.339 247.421 151.252 247.013 151.113 246.689C150.975 246.365 150.793 246.124 150.567 245.967C150.335 245.81 150.072 245.743 149.78 245.764Z" fill="#FDFDFD"/>
<path d="M133.813 243.484C134.299 243.517 134.749 243.631 135.164 243.826C135.571 244.028 135.904 244.297 136.162 244.636L135.078 245.574C134.964 245.38 134.791 245.214 134.559 245.078C134.321 244.948 134.059 244.874 133.773 244.854C133.52 244.837 133.297 244.866 133.105 244.939C132.913 245.02 132.758 245.14 132.641 245.299C132.523 245.465 132.456 245.661 132.441 245.887C132.426 246.119 132.466 246.323 132.561 246.496C132.657 246.67 132.798 246.806 132.985 246.906C133.165 247.012 133.375 247.073 133.614 247.089C133.854 247.105 134.076 247.087 134.28 247.034C134.483 246.987 134.672 246.907 134.847 246.792L134.651 247.781C134.49 247.89 134.337 247.977 134.193 248.04C134.048 248.111 133.891 248.16 133.722 248.189C133.553 248.217 133.356 248.224 133.129 248.209C132.611 248.173 132.182 248.037 131.844 247.801C131.498 247.563 131.248 247.262 131.092 246.898C130.929 246.532 130.861 246.137 130.89 245.711C130.92 245.246 131.064 244.838 131.321 244.488C131.572 244.137 131.91 243.873 132.336 243.695C132.762 243.516 133.254 243.446 133.813 243.484ZM134.847 246.792L135.484 247.466L134.926 250.746L133.509 250.65L134.095 247.402L134.847 246.792ZM134.804 249.405L134.926 250.746L130.965 250.477L131.053 249.15L134.804 249.405Z" fill="#FDFDFD"/>
<path d="M121.175 242.997L117.818 244.975C117.613 245.091 117.444 245.203 117.31 245.311C117.177 245.42 117.071 245.526 116.994 245.629C116.916 245.739 116.86 245.854 116.826 245.977C116.753 246.24 116.783 246.47 116.916 246.665C117.041 246.866 117.241 247.004 117.517 247.08C117.787 247.155 118.052 247.149 118.311 247.061C118.562 246.978 118.832 246.801 119.122 246.528L119.892 247.685C119.496 248.066 119.058 248.315 118.576 248.431C118.095 248.547 117.584 248.531 117.044 248.382C116.575 248.252 116.194 248.053 115.902 247.786C115.602 247.516 115.404 247.195 115.306 246.822C115.202 246.448 115.209 246.045 115.328 245.615C115.403 245.345 115.507 245.104 115.642 244.892C115.774 244.687 115.952 244.494 116.175 244.313C116.389 244.137 116.665 243.954 117.001 243.763L119.31 242.461L121.175 242.997ZM121.409 242.149L121.175 242.997L119.77 243.086L116.156 242.088L116.512 240.796L121.409 242.149ZM115.924 243.175L112.462 247.001L110.814 246.546L114.324 242.733L115.924 243.175ZM116.158 242.327L115.924 243.175L115.303 243.47L110.348 242.102L110.702 240.819L116.158 242.327ZM113.365 239.926L112.203 244.139L110.719 243.729L111.881 239.516L113.365 239.926Z" fill="#FDFDFD"/>
<path d="M102.919 235.677L100.019 242.114L98.5961 241.473L101.496 235.037L102.919 235.677ZM101.805 241.459L101.259 242.672L98.6873 241.515L99.2336 240.302L101.805 241.459ZM98.8698 233.734C99.3196 233.937 99.6818 234.22 99.9562 234.585C100.225 234.947 100.39 235.343 100.452 235.773C100.505 236.206 100.438 236.633 100.249 237.052C100.002 237.599 99.5615 238.066 98.9266 238.453L95.9247 240.272L94.3106 239.545L97.5911 237.644L98.1497 237.84C97.9988 237.948 97.8545 238.033 97.7168 238.095C97.5702 238.161 97.4117 238.188 97.2411 238.177C97.0678 238.172 96.8687 238.119 96.6438 238.018C96.2425 237.838 95.9262 237.582 95.695 237.251C95.4549 236.924 95.3102 236.556 95.2608 236.146C95.2086 235.742 95.2756 235.334 95.4618 234.92C95.6508 234.501 95.9297 234.166 96.2985 233.915C96.6647 233.671 97.0723 233.529 97.5213 233.489C97.9704 233.45 98.4199 233.532 98.8698 233.734ZM98.307 234.983C98.1186 234.899 97.9278 234.868 97.7347 234.89C97.5417 234.913 97.367 234.984 97.2107 235.104C97.0544 235.224 96.9324 235.381 96.8448 235.576C96.7544 235.776 96.7176 235.972 96.7342 236.162C96.7481 236.358 96.8119 236.533 96.9256 236.687C97.0365 236.846 97.1862 236.968 97.3747 237.053C97.5692 237.141 97.763 237.173 97.9561 237.15C98.1403 237.131 98.3106 237.061 98.4669 236.941C98.6205 236.828 98.7425 236.671 98.8328 236.47C98.9204 236.276 98.9573 236.08 98.9434 235.884C98.9295 235.687 98.8701 235.511 98.7652 235.354C98.6543 235.194 98.5016 235.071 98.307 234.983Z" fill="#FDFDFD"/>
<path d="M87.1133 227.355C87.5281 227.609 87.8651 227.914 88.1243 228.269C88.38 228.629 88.5433 229.019 88.6142 229.438L87.224 229.77C87.2139 229.544 87.138 229.318 86.9964 229.09C86.8456 228.865 86.6537 228.68 86.4208 228.537C86.2106 228.408 86.006 228.333 85.8072 228.313C85.6084 228.293 85.4244 228.325 85.2553 228.408C85.0805 228.489 84.9355 228.623 84.8202 228.81C84.7048 228.998 84.6524 229.184 84.663 229.371C84.6643 229.559 84.7275 229.743 84.8525 229.921C84.9719 230.096 85.148 230.255 85.3809 230.398C85.4889 230.464 85.6078 230.526 85.7376 230.582C85.8582 230.64 85.967 230.68 86.064 230.7L85.0199 231.08C84.8329 231.028 84.6596 230.972 84.5001 230.914C84.3314 230.857 84.1846 230.79 84.0596 230.714C83.7528 230.525 83.5226 230.282 83.3692 229.985C83.2123 229.693 83.1449 229.37 83.1671 229.016C83.1801 228.664 83.2985 228.306 83.5221 227.943C83.7667 227.546 84.0828 227.255 84.4704 227.07C84.8523 226.882 85.2718 226.811 85.7289 226.857C86.1803 226.899 86.6418 227.065 87.1133 227.355ZM86.064 230.7L85.608 231.441L83.0833 232.262L81.5781 231.349L84.1729 230.548L86.064 230.7ZM85.6969 233.338L84.9997 234.471L81.122 232.09L81.5781 231.349L82.8675 231.601L85.6969 233.338ZM82.8641 224.746C83.2789 225.001 83.6159 225.306 83.8751 225.66C84.1308 226.021 84.2941 226.41 84.365 226.829L82.9748 227.161C82.9647 226.936 82.8888 226.709 82.7472 226.482C82.5964 226.256 82.4045 226.072 82.1716 225.929C81.9614 225.8 81.7568 225.725 81.558 225.705C81.3592 225.684 81.1752 225.716 81.0061 225.8C80.8313 225.881 80.6863 226.014 80.571 226.202C80.4556 226.389 80.4032 226.576 80.4138 226.762C80.4151 226.951 80.4783 227.134 80.6033 227.313C80.7227 227.488 80.8988 227.647 81.1317 227.79C81.2397 227.856 81.3586 227.917 81.4884 227.974C81.609 228.032 81.7178 228.071 81.8148 228.092L80.7707 228.472C80.5837 228.419 80.4104 228.364 80.2509 228.305C80.0822 228.249 79.9354 228.182 79.8104 228.105C79.5036 227.917 79.2734 227.674 79.12 227.376C78.9631 227.084 78.8957 226.761 78.9179 226.407C78.9309 226.056 79.0493 225.698 79.2729 225.335C79.5175 224.937 79.8336 224.646 80.2212 224.462C80.6031 224.274 81.0226 224.203 81.4797 224.249C81.9311 224.291 82.3926 224.457 82.8641 224.746ZM81.8148 228.092L81.3588 228.833L78.8341 229.653L77.3289 228.741L79.9237 227.94L81.8148 228.092ZM81.4477 230.729L80.7505 231.862L76.8728 229.482L77.3289 228.741L78.6183 228.993L81.4477 230.729Z" fill="#FDFDFD"/>
<path d="M71.0339 215.774L66.1156 220.839L64.994 219.755L69.9123 214.69L71.0339 215.774ZM68.02 220.83L67.0934 221.784L65.0659 219.824L65.9924 218.87L68.02 220.83Z" fill="#FDFDFD"/>
<path d="M61.8029 207.108L57.9312 206.622C57.6975 206.589 57.4945 206.575 57.3223 206.579C57.1501 206.583 57.0019 206.602 56.8778 206.637C56.7483 206.675 56.6329 206.733 56.5315 206.809C56.3127 206.973 56.1961 207.172 56.1817 207.408C56.158 207.642 56.2323 207.874 56.4048 208.103C56.5733 208.327 56.7871 208.483 57.0462 208.572C57.296 208.66 57.6191 208.684 58.0156 208.646L57.9191 210.03C57.3717 210.09 56.8717 210.019 56.4188 209.817C55.966 209.615 55.5711 209.29 55.2341 208.842C54.9413 208.454 54.7606 208.064 54.6921 207.674C54.6195 207.279 54.6585 206.904 54.8089 206.55C54.9554 206.19 55.2073 205.876 55.5648 205.609C55.7889 205.441 56.0191 205.314 56.2553 205.229C56.4862 205.148 56.7452 205.104 57.0322 205.097C57.3099 205.089 57.6404 205.112 58.0236 205.166L60.6515 205.547L61.8029 207.108ZM62.5072 206.581L61.8029 207.108L60.6344 206.322L58.378 203.327L59.4505 202.523L62.5072 206.581ZM57.6945 200.01C58.0355 200.462 58.2216 200.964 58.253 201.516C58.2843 202.067 58.1615 202.613 57.8844 203.153C57.598 203.693 57.1666 204.178 56.5903 204.61C56.0087 205.046 55.4236 205.322 54.835 205.438C54.241 205.558 53.6875 205.527 53.1746 205.344C52.6564 205.166 52.2248 204.848 51.8798 204.39C51.5308 203.927 51.3426 203.422 51.3153 202.876C51.2826 202.334 51.4069 201.796 51.6879 201.26C51.965 200.72 52.3944 200.231 52.976 199.796C53.5576 199.36 54.1474 199.085 54.7454 198.97C55.3394 198.85 55.8955 198.879 56.4137 199.058C56.9226 199.234 57.3495 199.552 57.6945 200.01ZM56.588 200.851C56.4115 200.617 56.1924 200.464 55.9306 200.394C55.6635 200.327 55.3625 200.349 55.0275 200.458C54.6831 200.566 54.3162 200.766 53.9267 201.058C53.5318 201.354 53.2371 201.649 53.0425 201.945C52.8439 202.235 52.7421 202.516 52.7371 202.786C52.7267 203.06 52.8118 203.317 52.9923 203.557C53.1648 203.786 53.384 203.938 53.6497 204.014C53.9115 204.084 54.2099 204.065 54.5449 203.956C54.8798 203.846 55.2448 203.644 55.6396 203.348C56.0345 203.052 56.3312 202.759 56.5298 202.469C56.7284 202.179 56.8329 201.896 56.8432 201.622C56.8496 201.342 56.7645 201.085 56.588 200.851Z" fill="#FDFDFD"/>
<path d="M50.2532 190.911L43.904 193.998L43.2175 192.597L49.5667 189.51L50.2532 190.911ZM45.6985 194.638L44.5024 195.219L43.2615 192.687L44.4576 192.105L45.6985 194.638ZM47.2449 190.339L42.0782 190.272L41.3258 188.736L46.5145 188.849L47.2449 190.339ZM48.0363 189.954L47.2449 190.339L46.6114 190.069L44.3497 185.453L45.5458 184.872L48.0363 189.954ZM47.983 186.278L44.053 188.189L43.3753 186.806L47.3054 184.895L47.983 186.278Z" fill="#FDFDFD"/>
<path d="M43.5613 173.357C43.6829 173.828 43.7138 174.281 43.6539 174.716C43.5876 175.153 43.4344 175.546 43.1943 175.896L41.9632 175.168C42.1124 174.999 42.2152 174.784 42.2715 174.522C42.3197 174.255 42.3096 173.989 42.2413 173.724C42.1797 173.486 42.0844 173.29 41.9554 173.137C41.8265 172.984 41.672 172.879 41.4919 172.822C41.3103 172.758 41.1128 172.753 40.8996 172.808C40.6865 172.862 40.5189 172.96 40.397 173.101C40.267 173.237 40.1849 173.413 40.1509 173.628C40.1153 173.837 40.1316 174.073 40.1999 174.338C40.2316 174.461 40.2746 174.587 40.3289 174.718C40.3752 174.844 40.4261 174.948 40.4817 175.03L39.4663 174.577C39.368 174.409 39.2818 174.249 39.2079 174.096C39.1258 173.938 39.0664 173.788 39.0298 173.646C38.9398 173.297 38.943 172.963 39.0393 172.642C39.1292 172.323 39.3051 172.045 39.5671 171.806C39.8209 171.562 40.1545 171.388 40.5679 171.282C41.0201 171.167 41.4498 171.178 41.8569 171.315C42.2624 171.445 42.6137 171.686 42.9108 172.037C43.2062 172.381 43.423 172.821 43.5613 173.357ZM40.4817 175.03L39.6387 175.245L37.2516 174.079L36.8021 172.377L39.2261 173.606L40.4817 175.03ZM38.3848 176.669L37.0961 176.998L35.9591 172.592L36.8021 172.377L37.5552 173.454L38.3848 176.669ZM42.4512 169.495L35.6102 171.24L35.2204 169.73L42.0613 167.985L42.4512 169.495ZM37.2388 172.228L35.9501 172.557L35.2454 169.827L36.5341 169.498L37.2388 172.228Z" fill="#FDFDFD"/>
<path d="M39.3367 155.267L35.9665 153.492L35.8461 152.923C36.01 152.988 36.1589 153.065 36.2926 153.154C36.4188 153.237 36.5261 153.354 36.6144 153.503C36.6952 153.647 36.7537 153.847 36.7899 154.105C36.8494 154.527 36.8051 154.93 36.6572 155.314C36.5017 155.692 36.2671 156.011 35.9534 156.27C35.6322 156.523 35.2503 156.68 34.8079 156.741C34.3456 156.805 33.9133 156.747 33.511 156.567C33.1086 156.387 32.7711 156.117 32.4984 155.758C32.2256 155.398 32.0549 154.974 31.9862 154.486C31.9174 153.997 31.9646 153.543 32.1278 153.123C32.2843 152.705 32.5317 152.358 32.8699 152.082C33.2006 151.801 33.5971 151.628 34.0594 151.564C34.6538 151.482 35.2802 151.604 35.9388 151.931L39.0887 153.504L39.3367 155.267ZM35.5919 153.988C35.5631 153.783 35.4876 153.605 35.3653 153.454C35.243 153.302 35.0929 153.192 34.9148 153.122C34.73 153.053 34.532 153.034 34.3207 153.063C34.1028 153.093 33.9145 153.166 33.7558 153.282C33.5971 153.398 33.4831 153.545 33.4139 153.723C33.338 153.902 33.3145 154.094 33.3433 154.298C33.373 154.509 33.449 154.691 33.5713 154.842C33.686 154.988 33.8362 155.098 34.0219 155.174C34.2066 155.242 34.4079 155.262 34.6258 155.231C34.8371 155.202 35.0222 155.13 35.1809 155.013C35.332 154.892 35.4455 154.741 35.5214 154.563C35.5972 154.384 35.6207 154.192 35.5919 153.988Z" fill="#FDFDFD"/>
<path d="M36.6961 141.211L34.1904 138.223C34.0418 138.04 33.903 137.892 33.7741 137.778C33.6451 137.663 33.5234 137.577 33.4089 137.518C33.2877 137.458 33.1641 137.422 33.0381 137.409C32.7663 137.38 32.5449 137.447 32.3738 137.61C32.1969 137.766 32.0936 137.987 32.0641 138.272C32.0353 138.55 32.0854 138.81 32.2146 139.052C32.3378 139.286 32.5579 139.523 32.8747 139.765L31.8616 140.714C31.4197 140.386 31.1017 139.994 30.9076 139.538C30.7135 139.082 30.6453 138.575 30.703 138.018C30.7531 137.534 30.8858 137.126 31.1012 136.793C31.3173 136.454 31.601 136.205 31.9525 136.048C32.3046 135.884 32.7027 135.825 33.147 135.872C33.4254 135.901 33.6802 135.964 33.9114 136.062C34.1359 136.16 34.3556 136.303 34.5705 136.494C34.7795 136.676 35.0058 136.918 35.2495 137.218L36.9157 139.284L36.6961 141.211ZM37.5713 141.303L36.6961 141.211L36.3755 139.84L36.7616 136.11L38.0943 136.25L37.5713 141.303ZM37.2155 136.193L34.7098 133.206C34.5612 133.023 34.4224 132.874 34.2935 132.76C34.1645 132.646 34.0428 132.559 33.9282 132.5C33.8071 132.441 33.6835 132.404 33.5575 132.391C33.2857 132.362 33.0642 132.43 32.8932 132.593C32.7162 132.748 32.613 132.969 32.5835 133.254C32.5547 133.533 32.6048 133.793 32.734 134.034C32.8572 134.268 33.0772 134.506 33.3941 134.747L32.381 135.696C31.939 135.368 31.621 134.976 31.427 134.52C31.2329 134.064 31.1647 133.558 31.2223 133.001C31.2724 132.517 31.4052 132.108 31.6206 131.775C31.8367 131.436 32.1204 131.188 32.4718 131.03C32.8239 130.866 33.2221 130.807 33.6663 130.854C33.9448 130.883 34.1996 130.947 34.4308 131.045C34.6553 131.142 34.875 131.286 35.0899 131.476C35.2988 131.659 35.5252 131.9 35.7689 132.201L37.4351 134.266L37.2155 136.193ZM38.0906 136.285L37.2155 136.193L36.8949 134.823L37.281 131.092L38.6137 131.232L38.0906 136.285Z" fill="#FDFDFD"/>
<path d="M39.4758 122.484L32.6244 120.78L32.9999 119.266L39.8513 120.97L39.4758 122.484ZM33.5877 122.421L32.297 122.1L32.9759 119.363L34.2666 119.684L33.5877 122.421ZM40.6487 118.211C40.5268 118.703 40.3327 119.112 40.0666 119.437C39.802 119.756 39.492 119.981 39.1366 120.113C38.7828 120.238 38.4118 120.252 38.0236 120.155C37.7001 120.075 37.4242 119.941 37.1959 119.754C36.9692 119.56 36.7966 119.328 36.6781 119.058C36.5612 118.782 36.5081 118.484 36.5189 118.163L36.8222 118.27C36.6998 118.514 36.5385 118.708 36.3382 118.85C36.1316 118.991 35.903 119.082 35.6525 119.123C35.402 119.163 35.1538 119.153 34.9079 119.092C34.5456 119.002 34.2479 118.832 34.0146 118.581C33.7765 118.323 33.6175 118.009 33.5376 117.638C33.4577 117.268 33.4699 116.873 33.5742 116.452C33.6801 116.025 33.8541 115.67 34.0961 115.387C34.3396 115.097 34.6262 114.897 34.9558 114.786C35.2806 114.668 35.6241 114.654 35.9864 114.744C36.2322 114.805 36.4563 114.912 36.6587 115.066C36.8627 115.212 37.0231 115.397 37.1399 115.618C37.2502 115.838 37.3024 116.084 37.2964 116.358L36.9762 116.319C37.118 116.025 37.3043 115.786 37.5351 115.603C37.7676 115.413 38.0284 115.289 38.3177 115.231C38.607 115.172 38.9134 115.183 39.2368 115.264C39.625 115.36 39.9463 115.546 40.2006 115.823C40.4549 116.099 40.6237 116.443 40.7069 116.855C40.7917 117.261 40.7723 117.713 40.6487 118.211ZM39.3483 117.888C39.3965 117.694 39.4002 117.513 39.3595 117.345C39.3123 117.175 39.228 117.03 39.1065 116.911C38.9866 116.785 38.8393 116.7 38.6647 116.657C38.4835 116.612 38.3138 116.618 38.1554 116.674C37.9923 116.723 37.8534 116.812 37.7388 116.942C37.6178 117.07 37.5332 117.231 37.4851 117.425C37.4369 117.619 37.4365 117.801 37.4837 117.971C37.5244 118.139 37.6055 118.282 37.727 118.402C37.842 118.52 37.99 118.601 38.1712 118.646C38.3459 118.69 38.5148 118.687 38.678 118.638C38.8412 118.59 38.9833 118.501 39.1043 118.374C39.2189 118.244 39.3002 118.082 39.3483 117.888ZM36.3788 117.15C36.435 116.923 36.4095 116.721 36.3025 116.543C36.1906 116.357 36.0247 116.237 35.8047 116.183C35.5783 116.126 35.3754 116.155 35.1962 116.268C35.0121 116.374 34.8919 116.539 34.8358 116.766C34.7812 116.986 34.8066 117.188 34.9121 117.372C35.0175 117.556 35.1834 117.677 35.4098 117.733C35.6298 117.788 35.8327 117.759 36.0184 117.647C36.2041 117.536 36.3242 117.37 36.3788 117.15Z" fill="#FDFDFD"/>
<path d="M42.7369 106.855L41.154 103.295C41.0618 103.078 40.9695 102.897 40.8771 102.752C40.7846 102.607 40.6915 102.491 40.5977 102.402C40.4977 102.312 40.3889 102.243 40.2715 102.195C40.0179 102.093 39.7864 102.097 39.5769 102.206C39.3636 102.307 39.2034 102.491 39.0961 102.757C38.9913 103.016 38.9676 103.28 39.025 103.547C39.0787 103.806 39.2246 104.095 39.4626 104.414L38.2257 105.047C37.8915 104.611 37.6942 104.147 37.6337 103.655C37.5733 103.163 37.6478 102.658 37.8574 102.139C38.0395 101.687 38.2801 101.331 38.5792 101.071C38.8809 100.804 39.2225 100.644 39.6039 100.589C39.9879 100.528 40.387 100.582 40.8013 100.749C41.061 100.853 41.2884 100.985 41.4836 101.142C41.6725 101.298 41.844 101.496 41.9981 101.738C42.1484 101.971 42.2992 102.265 42.4504 102.621L43.4813 105.064L42.7369 106.855ZM43.553 107.185L42.7369 106.855L42.8079 105.45L44.211 101.972L45.4538 102.474L43.553 107.185ZM45.7586 101.718L43.7234 98.504L43.9034 97.9511C44.0132 98.0888 44.1037 98.2296 44.1751 98.3734C44.2428 98.5085 44.2776 98.6627 44.2796 98.836C44.2779 99.0007 44.2284 99.2035 44.1311 99.4446C43.9714 99.8403 43.7315 100.168 43.4113 100.427C43.0874 100.677 42.7248 100.836 42.3235 100.905C41.9185 100.964 41.5088 100.91 41.0946 100.743C40.6618 100.569 40.3159 100.304 40.0569 99.9476C39.798 99.5916 39.6401 99.1901 39.5832 98.743C39.5264 98.296 39.5902 97.8437 39.7748 97.3862C39.9594 96.9287 40.2273 96.5587 40.5785 96.2763C40.9236 95.9913 41.3116 95.8135 41.7427 95.7429C42.17 95.6636 42.6001 95.7113 43.0329 95.8858C43.5894 96.1101 44.0716 96.5274 44.4796 97.1376L46.4246 100.068L45.7586 101.718ZM43.1507 98.7474C43.2281 98.5558 43.2515 98.364 43.2212 98.172C43.1908 97.9801 43.1158 97.8097 42.9961 97.6608C42.8703 97.5094 42.7084 97.3938 42.5106 97.3141C42.3065 97.2318 42.1067 97.2015 41.911 97.2232C41.7153 97.245 41.543 97.3157 41.3941 97.4353C41.239 97.5525 41.1228 97.7069 41.0454 97.8986C40.9656 98.0964 40.9409 98.2913 40.9713 98.4832C40.998 98.6665 41.073 98.8369 41.1963 98.9945C41.3222 99.1459 41.4871 99.2627 41.6911 99.345C41.889 99.4247 42.0858 99.4538 42.2814 99.432C42.4734 99.4016 42.647 99.3278 42.8021 99.2107C42.9572 99.0935 43.0734 98.9391 43.1507 98.7474Z" fill="#FDFDFD"/>
<path d="M52.7341 87.0453L48.393 82.0371L49.1089 80.6849L53.4921 85.6136L52.7341 87.0453ZM47.228 85.1991L46.052 84.5777L48.3308 80.2738L49.1089 80.6849L49.2634 81.3547L47.228 85.1991Z" fill="#FDFDFD"/>
<path d="M58.7208 75.5026L58.274 71.6354C58.2508 71.4011 58.2168 71.201 58.1719 71.035C58.127 70.8691 58.073 70.7301 58.0097 70.618C57.9413 70.5018 57.8581 70.4035 57.76 70.3233C57.5485 70.1502 57.3263 70.0847 57.0933 70.1266C56.8595 70.1593 56.6516 70.2863 56.4696 70.5078C56.2919 70.7242 56.1904 70.9685 56.1652 71.2408C56.1391 71.5036 56.192 71.8226 56.3239 72.1976L54.9532 72.4327C54.7646 71.9165 54.7149 71.4151 54.8043 70.9282C54.8936 70.4414 55.116 69.9816 55.4714 69.5489C55.7803 69.1729 56.1166 68.9053 56.4802 68.7463C56.848 68.5821 57.2223 68.5309 57.6029 68.5926C57.9879 68.6491 58.3532 68.8188 58.6989 69.1017C58.9156 69.279 59.0935 69.472 59.2327 69.6806C59.3667 69.8851 59.4712 70.1255 59.5459 70.4021C59.6198 70.6693 59.6758 70.995 59.7138 71.3793L59.9677 74.0162L58.7208 75.5026ZM59.4019 76.0599L58.7208 75.5026L59.209 74.1836L61.5893 71.2859L62.6264 72.1345L59.4019 76.0599ZM64.3203 70.2457C63.9987 70.6372 63.6477 70.9228 63.2672 71.1025C62.8909 71.2769 62.5138 71.3474 62.1359 71.3138C61.7622 71.2751 61.4206 71.1291 61.111 70.8758C60.853 70.6647 60.661 70.4257 60.5351 70.159C60.4133 69.8871 60.3568 69.604 60.3656 69.3097C60.3787 69.0103 60.4588 68.7184 60.6061 68.434L60.8348 68.6599C60.6191 68.8279 60.39 68.9334 60.1477 68.9763C59.9003 69.015 59.6545 68.9991 59.4104 68.9286C59.1664 68.8581 58.9463 68.7427 58.7502 68.5823C58.4613 68.3458 58.2652 68.0647 58.1618 67.7389C58.0575 67.4038 58.0488 67.0521 58.1356 66.6838C58.2224 66.3155 58.4034 65.964 58.6784 65.6291C58.9577 65.2892 59.2676 65.0431 59.6082 64.8911C59.953 64.7339 60.2982 64.6761 60.6437 64.7176C60.9883 64.7498 61.305 64.8841 61.5939 65.1205C61.79 65.2809 61.9466 65.4737 62.0637 65.6987C62.185 65.9186 62.251 66.1534 62.2615 66.4032C62.2668 66.6488 62.2081 66.8936 62.0852 67.1376L61.8122 66.9659C62.0669 66.7608 62.338 66.6251 62.6254 66.5588C62.917 66.4874 63.2062 66.4871 63.493 66.5581C63.7798 66.6291 64.0522 66.7702 64.3102 66.9813C64.6197 67.2346 64.8302 67.5403 64.9415 67.8984C65.0528 68.2565 65.0575 68.6394 64.9556 69.047C64.8579 69.4495 64.6462 69.8491 64.3203 70.2457ZM63.2833 69.3971C63.4102 69.2426 63.4914 69.0807 63.5268 68.9116C63.5571 68.7382 63.543 68.5716 63.4845 68.4118C63.4302 68.2468 63.3334 68.1073 63.1941 67.9933C63.0496 67.8751 62.8936 67.8077 62.726 67.7912C62.5575 67.7653 62.3936 67.7862 62.2344 67.854C62.07 67.9176 61.9243 68.0267 61.7973 68.1812C61.6704 68.3358 61.5918 68.4997 61.5615 68.6731C61.5261 68.8423 61.5377 69.0068 61.5962 69.1666C61.6495 69.3222 61.7484 69.4591 61.8929 69.5774C62.0322 69.6914 62.1861 69.7613 62.3546 69.7872C62.5231 69.8131 62.6896 69.7943 62.854 69.7307C63.0132 69.6629 63.1563 69.5517 63.2833 69.3971ZM60.9151 67.4593C61.0632 67.279 61.127 67.0858 61.1066 66.8795C61.0853 66.664 60.9869 66.4844 60.8115 66.3409C60.6309 66.1931 60.4352 66.132 60.2243 66.1576C60.0126 66.1738 59.8326 66.2721 59.6845 66.4524C59.5406 66.6276 59.4768 66.8208 59.493 67.0322C59.5092 67.2435 59.6075 67.4231 59.7881 67.5709C59.9635 67.7144 60.1593 67.7755 60.3753 67.7541C60.5913 67.7327 60.7712 67.6345 60.9151 67.4593Z" fill="#FDFDFD"/>
<path d="M73.3981 62.4363L68.9928 56.9194L70.2144 55.9493L74.6198 61.4662L73.3981 62.4363ZM68.7576 58.8045L67.9277 57.7651L70.1361 56.0115L70.966 57.0508L68.7576 58.8045ZM74.305 60.5924L74.6801 56.7192C74.7067 56.4853 74.7154 56.2825 74.7064 56.1109C74.6973 55.9394 74.6736 55.7922 74.6353 55.6694C74.5928 55.5414 74.532 55.4279 74.453 55.3289C74.2824 55.1153 74.0788 55.0046 73.8422 54.9967C73.6066 54.9794 73.3766 55.06 73.1521 55.2382C72.9328 55.4124 72.7823 55.6298 72.7004 55.8906C72.6197 56.142 72.6044 56.4648 72.6547 56.859L71.2646 56.8009C71.1886 56.2569 71.2453 55.7564 71.4349 55.2993C71.6245 54.8423 71.9386 54.4397 72.3771 54.0914C72.7582 53.7888 73.1433 53.5979 73.5323 53.5189C73.9266 53.4357 74.3034 53.4642 74.6628 53.6044C75.0274 53.7405 75.3491 53.9831 75.6278 54.3321C75.8025 54.551 75.936 54.7769 76.0284 55.0101C76.1165 55.238 76.1682 55.495 76.1832 55.781C76.1994 56.0576 76.1857 56.3877 76.1422 56.7712L75.8368 59.4016L74.305 60.5924ZM74.8542 61.2801L74.305 60.5924L75.0596 59.4059L77.9963 57.0739L78.8324 58.121L74.8542 61.2801Z" fill="#FDFDFD"/>
<path d="M87.4685 51.7809C87.0511 52.0313 86.625 52.1897 86.1901 52.2562C85.7517 52.317 85.3298 52.2824 84.9243 52.1525L85.2684 50.7684C85.4735 50.863 85.71 50.9 85.9778 50.8793C86.2479 50.8494 86.5002 50.7642 86.7346 50.6236C86.9461 50.4967 87.1067 50.3499 87.2162 50.1831C87.3258 50.0163 87.3821 49.8388 87.3852 49.6504C87.3939 49.4585 87.3415 49.2684 87.2277 49.0801C87.114 48.8918 86.9718 48.7594 86.8011 48.683C86.6326 48.5975 86.4402 48.5691 86.2239 48.5977C86.0133 48.623 85.7908 48.7059 85.5564 48.8465C85.4478 48.9117 85.3386 48.9888 85.2289 49.0779C85.1214 49.1579 85.0363 49.2362 84.9735 49.3127L85.1155 48.2131C85.248 48.0714 85.3771 47.9434 85.5028 47.8292C85.6308 47.7058 85.7577 47.6064 85.8835 47.5309C86.1922 47.3458 86.5143 47.2536 86.8497 47.2546C87.1817 47.2498 87.5001 47.3387 87.805 47.5212C88.1122 47.6945 88.376 47.9638 88.5966 48.3291C88.8378 48.7286 88.9514 49.1424 88.9374 49.5706C88.9291 49.9954 88.7994 50.3996 88.5483 50.7835C88.3029 51.1638 87.943 51.4963 87.4685 51.7809ZM84.9735 49.3127L84.5238 48.568L84.9547 45.9541L86.4588 45.0402L85.9783 47.7073L84.9735 49.3127ZM82.7947 47.7743L82.1072 46.6358L86.0091 44.2955L86.4588 45.0402L85.6418 46.0667L82.7947 47.7743ZM91.7529 49.2113C91.3355 49.4616 90.9008 49.6251 90.4488 49.7019C89.999 49.7696 89.5713 49.7384 89.1658 49.6085L89.5185 48.2193C89.7236 48.3139 89.9601 48.3509 90.2279 48.3301C90.498 48.3003 90.756 48.2116 91.0018 48.0642C91.2191 47.9339 91.3854 47.7836 91.5006 47.6134C91.6125 47.4375 91.6711 47.2508 91.6764 47.0532C91.6783 46.85 91.6206 46.6514 91.5034 46.4573C91.3828 46.2576 91.2337 46.1138 91.0561 46.026C90.8785 45.9382 90.6844 45.9069 90.4738 45.9322C90.2654 45.9483 90.0584 46.0181 89.8526 46.1415C89.6467 46.2649 89.4753 46.4066 89.3382 46.5666C89.1977 46.7208 89.0888 46.895 89.0113 47.0892L88.6059 46.1663C88.6754 45.9847 88.7512 45.8265 88.8333 45.6917C88.912 45.5512 89.0125 45.421 89.1348 45.301C89.257 45.181 89.4153 45.0627 89.6097 44.9462C90.0557 44.6787 90.4853 44.5454 90.8986 44.5463C91.3176 44.5437 91.6956 44.6474 92.0326 44.8573C92.3753 45.0638 92.6569 45.3496 92.8775 45.7149C93.1187 46.1143 93.234 46.531 93.2234 46.9649C93.2186 47.3954 93.0923 47.8054 92.8447 48.1949C92.597 48.5844 92.2331 48.9232 91.7529 49.2113ZM89.0113 47.0892L88.1025 46.8996L86.6831 43.8912L87.9009 43.1608L89.279 46.159L89.0113 47.0892ZM87.5507 44.9218L86.6831 43.8912L90.0877 41.8492L90.7752 42.9878L87.5507 44.9218Z" fill="#FDFDFD"/>
<path d="M106.524 41.6946C106.063 41.8507 105.613 41.9152 105.174 41.8879C104.732 41.8543 104.327 41.7311 103.959 41.5181L104.588 40.2385C104.769 40.3745 104.992 40.4607 105.258 40.4973C105.528 40.5254 105.793 40.4956 106.052 40.4079C106.286 40.3288 106.474 40.2194 106.616 40.0796C106.759 39.9399 106.851 39.7783 106.894 39.5948C106.943 39.4092 106.932 39.2123 106.861 39.0042C106.79 38.796 106.679 38.6365 106.529 38.5256C106.382 38.4063 106.2 38.3377 105.983 38.3199C105.771 38.2999 105.536 38.3337 105.278 38.4214C105.158 38.462 105.035 38.5143 104.908 38.5781C104.786 38.6335 104.687 38.6919 104.609 38.7534L104.981 37.7089C105.141 37.5985 105.294 37.5008 105.441 37.4158C105.592 37.3224 105.737 37.2521 105.876 37.2051C106.217 37.0896 106.551 37.0679 106.879 37.14C107.204 37.2057 107.497 37.3601 107.756 37.6031C108.019 37.8377 108.22 38.1568 108.358 38.5605C108.509 39.0021 108.533 39.4306 108.428 39.8461C108.33 40.2594 108.117 40.627 107.791 40.9489C107.47 41.2685 107.048 41.5171 106.524 41.6946ZM104.609 38.7534L104.327 37.9302L105.303 35.4671L106.967 34.8931L105.931 37.3975L104.609 38.7534ZM102.806 36.7879L102.376 35.5294L106.685 34.0699L106.967 34.8931L105.951 35.7229L102.806 36.7879Z" fill="#FDFDFD"/>
<path d="M119.143 37.1598L121.229 33.8746C121.358 33.678 121.458 33.5011 121.527 33.344C121.597 33.1869 121.642 33.0449 121.664 32.918C121.684 32.7846 121.681 32.6559 121.655 32.5319C121.599 32.2643 121.468 32.0734 121.26 31.9594C121.058 31.8375 120.817 31.8053 120.536 31.8628C120.261 31.919 120.029 32.0449 119.838 32.2404C119.652 32.4282 119.493 32.7092 119.359 33.0836L118.146 32.4032C118.324 31.8836 118.601 31.4628 118.976 31.1409C119.352 30.819 119.814 30.6019 120.363 30.4895C120.84 30.3919 121.27 30.3958 121.652 30.5012C122.042 30.6052 122.365 30.801 122.622 31.0886C122.886 31.3749 123.063 31.7367 123.154 32.1741C123.21 32.4482 123.227 32.7102 123.204 32.9599C123.18 33.203 123.11 33.4556 122.994 33.7175C122.883 33.9715 122.722 34.2597 122.509 34.5822L121.048 36.7902L119.143 37.1598ZM119.322 38.0214L119.143 37.1598L120.353 36.4426L124.026 35.6905L124.299 37.0025L119.322 38.0214ZM126.863 36.5898C126.379 36.6888 125.92 36.6706 125.483 36.5355C125.053 36.3989 124.686 36.1746 124.383 35.8624C124.085 35.5423 123.89 35.157 123.796 34.7066C123.674 34.1192 123.757 33.483 124.043 32.7982L125.406 29.5694L127.14 29.2144L125.601 32.6734L125.033 32.8407C125.092 32.6653 125.159 32.5121 125.234 32.3811C125.314 32.2422 125.426 32.1273 125.571 32.0365C125.714 31.9391 125.906 31.8657 126.148 31.8162C126.579 31.728 126.985 31.7503 127.367 31.8831C127.754 32.008 128.087 32.2221 128.368 32.5253C128.648 32.8219 128.833 33.1922 128.926 33.6361C129.019 34.0865 128.99 34.5211 128.839 34.94C128.686 35.3523 128.439 35.7056 128.099 35.9999C127.758 36.2942 127.346 36.4909 126.863 36.5898ZM126.584 35.2484C126.787 35.2069 126.96 35.1205 127.103 34.9892C127.245 34.8579 127.345 34.698 127.401 34.5095C127.457 34.3211 127.464 34.1224 127.421 33.9136C127.376 33.6981 127.291 33.5182 127.166 33.3737C127.039 33.2227 126.884 33.1183 126.702 33.0603C126.519 32.9958 126.326 32.9843 126.123 33.0258C125.914 33.0685 125.738 33.1556 125.595 33.287C125.457 33.4104 125.36 33.5664 125.304 33.7548C125.247 33.9367 125.24 34.1354 125.285 34.3508C125.328 34.5597 125.413 34.7396 125.54 34.8906C125.667 35.0416 125.818 35.15 125.995 35.2158C126.179 35.2803 126.375 35.2912 126.584 35.2484Z" fill="#FDFDFD"/>
</svg>
